<?xml version="1.0" encoding="UTF-8" standalone="no"?>
<!-- Created with Inkscape (http://www.inkscape.org/) -->

<svg
   width="361mm"
   height="80mm"
   viewBox="0 0 361 80"
   version="1.1"
   id="svg5662"
   inkscape:version="1.1 (c68e22c387, 2021-05-23)"
   sodipodi:docname="InterpolateSubPath.svg"
   xmlns:inkscape="http://www.inkscape.org/namespaces/inkscape"
   xmlns:sodipodi="http://sodipodi.sourceforge.net/DTD/sodipodi-0.dtd"
   xmlns="http://www.w3.org/2000/svg"
   xmlns:svg="http://www.w3.org/2000/svg">
  <sodipodi:namedview
     id="namedview5664"
     pagecolor="#ffffff"
     bordercolor="#666666"
     borderopacity="1.0"
     inkscape:pageshadow="2"
     inkscape:pageopacity="0.0"
     inkscape:pagecheckerboard="0"
     inkscape:document-units="mm"
     showgrid="false"
     inkscape:zoom="0.33827143"
     inkscape:cx="718.35803"
     inkscape:cy="-73.905147"
     inkscape:window-width="1366"
     inkscape:window-height="715"
     inkscape:window-x="-8"
     inkscape:window-y="-8"
     inkscape:window-maximized="1"
     inkscape:current-layer="g5996" />
  <defs
     id="defs5659">
    <inkscape:path-effect
       effect="interpolate"
       id="path-effect6116"
       is_visible="true"
       lpeversion="1"
       trajectory="m 138.82161,92.916201 -2.8e-4,-2.212291"
       equidistant_spacing="true"
       steps="17" />
    <inkscape:path-effect
       effect="interpolate"
       id="path-effect6108"
       is_visible="true"
       lpeversion="1"
       trajectory="M 36.57062,95.875011 36.57034,93.66272"
       equidistant_spacing="true"
       steps="17" />
    <inkscape:path-effect
       effect="curvestitching"
       id="path-effect6106"
       is_visible="true"
       lpeversion="1"
       count="5"
       startpoint_edge_variation="0;1"
       startpoint_spacing_variation="0;1"
       endpoint_edge_variation="0;1"
       endpoint_spacing_variation="0;1"
       strokepath="M 0,0 H 1"
       prop_scale="1"
       scale_y_rel="false" />
    <inkscape:path-effect
       effect="curvestitching"
       id="path-effect6056"
       is_visible="true"
       lpeversion="1"
       count="12"
       startpoint_edge_variation="0;1"
       startpoint_spacing_variation="0;1"
       endpoint_edge_variation="0;1"
       endpoint_spacing_variation="0;1"
       strokepath="M 0,0 H 1"
       prop_scale="1"
       scale_y_rel="false" />
    <inkscape:path-effect
       effect="mirror_symmetry"
       start_point="268.79405,71.89944"
       end_point="268.79405,111.72067"
       center_point="268.79405,91.810055"
       id="path-effect6054"
       is_visible="true"
       lpeversion="1.1"
       mode="free"
       discard_orig_path="false"
       fuse_paths="false"
       oposite_fuse="false"
       split_items="false"
       split_open="false" />
    <inkscape:path-effect
       effect="interpolate"
       id="path-effect5992"
       is_visible="true"
       lpeversion="1"
       trajectory="m 0,-3.950168 v 0"
       equidistant_spacing="true"
       steps="25" />
    <inkscape:path-effect
       effect="bspline"
       id="path-effect5848"
       is_visible="true"
       lpeversion="1"
       weight="33.333333"
       steps="2"
       helper_size="0"
       apply_no_weight="true"
       apply_with_weight="true"
       only_selected="false" />
    <inkscape:path-effect
       effect="bspline"
       id="path-effect5762"
       is_visible="true"
       lpeversion="1"
       weight="33.333333"
       steps="2"
       helper_size="0"
       apply_no_weight="true"
       apply_with_weight="true"
       only_selected="false" />
  </defs>
  <g
     inkscape:label="Layer 1"
     inkscape:groupmode="layer"
     id="layer1"
     style="display:inline">
    <g
       id="g5996"
       transform="matrix(-0.67319857,0.01793212,-0.00165387,-1.4951026,295.12008,179.12893)">
      <path
         id="path5844"
         style="fill:none;stroke:#000000;stroke-width:0.264583px;stroke-linecap:butt;stroke-linejoin:miter;stroke-opacity:1"
         d="m -93.401828,94.768866 c 7.744017,6.637874 15.487034,13.274744 23.229051,19.910614 5.163011,-9.95431 10.325022,-19.909611 15.486033,-29.865918 4.425581,-2.580007 8.850162,-5.161013 13.273743,-7.74302 2.582005,8.481447 5.163011,16.961893 7.743016,25.441338 4.794296,3.31944 9.587591,6.63787 14.379887,9.95531 5.900443,-10.32302 11.7998846,-20.647045 17.6983276,-30.972068 5.90044,-1.105143 11.7998804,-2.211287 17.6983204,-3.31843 6.63787,10.32502 13.27475,20.64904 19.91062,30.972058 6.63787,-7.3733 13.27474,-14.747599 19.91061,-22.122899 2.58201,-3.317436 5.16301,-6.635873 7.74302,-9.955309 5.90044,0.73843 11.79988,1.47586 17.69832,2.21229 3.68815,7.006587 7.3753,14.012173 11.06145,21.016758 8.85016,0.001 17.69933,0.001 26.54749,0 2.582,-7.373298 5.16301,-14.747598 7.74301,-22.122898 7.00659,0.369713 14.01217,0.738427 21.01676,1.10614 6.26916,8.112733 12.53732,16.224467 18.80448,24.335198 0.001,0.36971 0.001,0.73843 0,1.10614 M -93.401828,94.768866 c 7.743971,5.808214 15.486988,11.615484 23.229051,17.421784 5.162971,-8.70993 10.324976,-17.420827 15.486033,-26.132675 4.425541,-2.257424 8.850116,-4.515807 13.273743,-6.775143 2.581962,7.421335 5.162965,14.841736 7.743016,22.261168 4.794256,2.90459 9.587545,5.80822 14.379887,8.7109 5.900404,-9.03255 11.7998386,-18.066086 17.6983276,-27.10056 5.9004013,-0.96692 11.7998344,-1.934797 17.6983204,-2.903626 6.637833,9.034458 13.274704,18.067989 19.91062,27.100546 6.637832,-6.45154 13.274694,-12.904066 19.91061,-19.357532 2.581967,-2.902673 5.162964,-5.80631 7.74302,-8.710896 5.900401,0.646205 11.799834,1.291457 17.69832,1.935754 3.688109,6.130834 7.375254,12.26073 11.06145,18.389663 8.85013,9.54e-4 17.69928,9.54e-4 26.54749,0 2.58196,-6.451547 5.16296,-12.904068 7.74301,-19.357535 7.00655,0.323578 14.01212,0.646203 21.01676,0.967872 6.26912,7.098711 12.53727,14.196488 18.80448,21.293294 9.5e-4,0.32358 9.5e-4,0.64621 0,0.96788 M -93.401828,94.768866 c 7.743925,4.978564 15.486942,9.956214 23.229051,14.932964 5.162932,-7.46555 10.32493,-14.932053 15.486033,-22.399442 4.4255,-1.934841 8.85007,-3.870601 13.273743,-5.807265 2.581919,6.361222 5.162919,12.721577 7.743016,19.081007 4.794216,2.48973 9.587499,4.97856 14.379887,7.46648 5.900366,-7.74208 11.7997926,-15.485127 17.6983276,-23.229052 5.9003625,-0.828696 11.7997884,-1.658307 17.6983204,-2.488823 6.637795,7.743898 13.274658,15.486938 19.91062,23.229045 6.637794,-5.5298 13.274648,-11.060542 19.91061,-16.592175 2.581924,-2.487911 5.162919,-4.976747 7.74302,-7.466482 5.900362,0.553979 11.799788,1.107052 17.69832,1.659217 3.688067,5.255082 7.375209,10.509288 11.06145,15.762568 8.85009,9.08e-4 17.69924,9.08e-4 26.54749,0 2.58192,-5.529796 5.16292,-11.060539 7.74301,-16.592173 7.00651,0.277443 14.01208,0.553979 21.01676,0.829605 6.26908,6.084688 12.53723,12.168509 18.80448,18.2514 9.1e-4,0.27744 9.1e-4,0.55398 0,0.8296 M -93.401828,94.768866 c 7.743879,4.148909 15.486896,8.296954 23.229051,12.444134 5.162892,-6.22117 10.324884,-12.44327 15.486033,-18.666199 4.42546,-1.612258 8.850024,-3.225396 13.273743,-4.839388 2.581877,5.301111 5.162873,10.60142 7.743016,15.900836 4.794176,2.074871 9.587453,4.148901 14.379887,6.222071 5.900327,-6.451613 11.7997466,-12.904168 17.6983276,-19.357544 5.9003238,-0.690473 11.7997414,-1.381818 17.6983204,-2.074019 6.637758,6.453336 13.274611,12.905887 19.91062,19.357533 6.637756,-4.608045 13.274601,-9.217009 19.91061,-13.826809 2.581881,-2.073147 5.162873,-4.147183 7.74302,-6.222068 5.900324,0.461754 11.799741,0.922649 17.69832,1.382682 3.688026,4.379328 7.375163,8.757844 11.06145,13.135473 8.85006,8.62e-4 17.69919,8.62e-4 26.54749,0 2.58187,-4.608046 5.16287,-9.21701 7.74301,-13.826811 7.00648,0.231308 14.01203,0.461755 21.01676,0.691338 6.26905,5.070665 12.53718,10.140529 18.80448,15.209495 8.6e-4,0.23131 8.6e-4,0.46176 0,0.69134 M -93.401828,94.768866 c 7.743833,3.319254 15.48685,6.637684 23.229051,9.955304 5.162853,-4.976787 10.324838,-9.954486 15.486033,-14.932956 4.425419,-1.289675 8.849978,-2.58019 13.273743,-3.87151 2.581834,4.240998 5.162827,8.481262 7.743016,12.720668 4.794136,1.660018 9.587407,3.319248 14.379887,4.977658 5.900288,-5.161144 11.7997006,-10.323208 17.6983276,-15.486036 5.900285,-0.55225 11.7996954,-1.105328 17.6983204,-1.659215 6.63772,5.162775 13.274565,10.324836 19.91062,15.486031 6.637718,-3.6863 13.274555,-7.373486 19.91061,-11.061452 2.581838,-1.658384 5.162828,-3.31762 7.74302,-4.977654 5.900285,0.369527 11.799695,0.738245 17.69832,1.106145 3.687985,3.503575 7.375118,7.006402 11.06145,10.508378 8.85002,8.16e-4 17.69915,8.16e-4 26.54749,0 2.58183,-3.686295 5.16283,-7.373481 7.74301,-11.061448 7.00644,0.185172 14.01199,0.36953 21.01676,0.55307 6.26901,4.056642 12.53714,8.11255 18.80448,12.167599 8.2e-4,0.185168 8.2e-4,0.369531 0,0.553069 M -93.401828,94.768866 c 7.743787,2.489599 15.486804,4.978424 23.229051,7.466484 5.162813,-3.732414 10.324792,-7.465712 15.486033,-11.199723 4.425379,-0.967092 8.849932,-1.934984 13.273743,-2.903632 2.581791,3.180885 5.162781,6.361103 7.743016,9.5405 4.794096,1.245166 9.587361,2.489595 14.379887,3.733245 5.90025,-3.870675 11.7996546,-7.742249 17.6983276,-11.614528 5.9002463,-0.414026 11.7996494,-0.828838 17.6983204,-1.244411 6.637683,3.872213 13.274519,7.743785 19.91062,11.614519 6.637679,-2.764545 13.274509,-5.529953 19.91061,-8.296085 2.581794,-1.243622 5.162782,-2.488056 7.74302,-3.733241 5.900246,0.277302 11.799649,0.553842 17.69832,0.829609 3.687944,2.627823 7.375072,5.254959 11.06145,7.881283 8.84999,7.7e-4 17.6991,7.7e-4 26.54749,0 2.58179,-2.764544 5.16278,-5.529951 7.74301,-8.296085 7.0064,0.139037 14.01194,0.277306 21.01676,0.414802 6.26897,3.04262 12.53709,6.084571 18.80448,9.125699 7.7e-4,0.139033 7.7e-4,0.277307 0,0.414802 M -93.401828,94.768866 c 7.743741,1.659944 15.486758,3.31916 23.229051,4.977653 5.162774,-2.48803 10.324746,-4.976927 15.486033,-7.466479 4.425338,-0.644509 8.849886,-1.289778 13.273743,-1.935755 2.581748,2.120773 5.162735,4.240946 7.743016,6.360333 4.794056,0.830311 9.587315,1.659941 14.379887,2.488828 5.900211,-2.580202 11.7996086,-5.161286 17.6983276,-7.743016 5.9002075,-0.275803 11.7996034,-0.552348 17.6983204,-0.829608 6.637645,2.581653 13.274473,5.162734 19.91062,7.743013 6.637641,-1.842795 13.274463,-3.686425 19.91061,-5.530723 2.581751,-0.828859 5.162736,-1.658493 7.74302,-2.488827 5.900208,0.185076 11.799602,0.369437 17.69832,0.553072 3.687903,1.75207 7.375026,3.503517 11.06145,5.254188 8.84995,7.24e-4 17.69905,7.24e-4 26.54749,0 2.58174,-1.842793 5.16273,-3.686421 7.74301,-5.530723 7.00637,0.0929 14.0119,0.185082 21.01676,0.276535 6.26893,2.028597 12.53704,4.056592 18.80448,6.0838 7.3e-4,0.0929 7.3e-4,0.185082 0,0.276533 M -93.401828,94.768866 c 7.743695,0.830289 15.486712,1.659896 23.229051,2.488826 5.162734,-1.24365 10.3247,-2.488146 15.486033,-3.733239 4.425298,-0.321926 8.84984,-0.644572 13.273743,-0.967878 2.581705,1.060661 5.162689,2.120789 7.743016,3.180166 4.794016,0.415456 9.587269,0.830286 14.379887,1.244415 5.900172,-1.289733 11.7995626,-2.580327 17.6983276,-3.871508 5.9001688,-0.13758 11.7995564,-0.275858 17.6983204,-0.414804 6.637608,1.291091 13.274426,2.581683 19.91062,3.871505 6.637603,-0.921044 13.274416,-1.842895 19.91061,-2.76536 2.581708,-0.414096 5.162691,-0.82893 7.74302,-1.244414 5.900169,0.09285 11.799556,0.185034 17.69832,0.276537 3.687861,0.876316 7.374981,1.752073 11.06145,2.627092 8.84992,6.79e-4 17.69901,6.79e-4 26.54749,0 2.5817,-0.921042 5.16269,-1.842892 7.74301,-2.76536 7.00633,0.04677 14.01185,0.09286 21.01676,0.138268 6.26889,1.014574 12.537,2.028612 18.80448,3.041899 6.8e-4,0.04676 6.8e-4,0.09286 0,0.138266 M -93.401828,94.768866 c 7.743649,6.34e-4 15.486666,6.33e-4 23.229051,-10e-7 5.162695,7.3e-4 10.324654,6.34e-4 15.486033,10e-7 4.425258,6.57e-4 8.849794,6.34e-4 13.273743,0 2.581663,5.48e-4 5.162643,6.31e-4 7.743016,-2e-6 4.793977,6.01e-4 9.587224,6.32e-4 14.379887,1e-6 5.900134,7.37e-4 11.7995166,6.33e-4 17.6983276,10e-7 5.90013,6.44e-4 11.7995104,6.31e-4 17.6983204,0 6.63757,5.3e-4 13.27438,6.32e-4 19.91062,-3e-6 6.637565,7.07e-4 13.27437,6.34e-4 19.91061,2e-6 2.581665,6.67e-4 5.162645,6.34e-4 7.74302,10e-7 5.90013,6.25e-4 11.79951,6.3e-4 17.69832,0 3.68782,5.63e-4 7.374935,6.31e-4 11.06145,-3e-6 8.84989,6.33e-4 17.69896,6.33e-4 26.54749,0 2.58166,7.09e-4 5.16264,6.38e-4 7.74301,3e-6 7.00629,6.31e-4 14.0118,6.33e-4 21.01676,0 6.26886,5.51e-4 12.53695,6.33e-4 18.80448,0 6.4e-4,6.26e-4 6.4e-4,6.33e-4 0,-2e-6 m -259.944138,2e-6 c 7.743603,-0.829022 15.48662,-1.658631 23.229051,-2.488828 5.162655,1.245111 10.324607,2.489415 15.486033,3.733241 4.425217,0.323239 8.849748,0.645839 13.273743,0.967877 2.58162,-1.059563 5.162597,-2.119527 7.743016,-3.180169 4.793937,-0.414254 9.587178,-0.829023 14.379887,-1.244413 5.900095,1.291207 11.7994706,2.581593 17.6983276,3.87151 5.9000913,0.138867 11.7994644,0.277121 17.6983204,0.414804 6.637533,-1.290032 13.274334,-2.580419 19.91062,-3.871511 6.637527,0.922459 13.274324,1.844163 19.91061,2.765365 2.581622,0.41543 5.162599,0.830197 7.74302,1.244414 5.900091,-0.0916 11.799464,-0.183773 17.69832,-0.276536 3.687779,-0.875189 7.374889,-1.750812 11.06145,-2.627097 8.84985,5.86e-4 17.69891,5.86e-4 26.54749,0 2.58162,0.92246 5.16259,1.844167 7.74301,2.765365 7.00625,-0.0455 14.01176,-0.09159 21.01676,-0.138268 6.26882,-1.013471 12.5369,-2.027346 18.80448,-3.0419 5.9e-4,-0.04551 5.9e-4,-0.09159 0,-0.138269 m -259.944138,1.244415 c 7.743557,-1.658677 15.486574,-3.317895 23.229051,-4.977655 5.162615,2.489491 10.324561,4.978196 15.486033,7.466481 4.425177,0.645822 8.849702,1.291045 13.273743,1.935755 2.581577,-2.119676 5.162551,-4.239685 7.743016,-6.360337 4.793897,-0.829109 9.587132,-1.658678 14.379887,-2.488826 5.900056,2.581676 11.7994246,5.162552 17.6983276,7.743018 5.9000525,0.27709 11.7994184,0.553611 17.6983204,0.829607 6.637495,-2.580592 13.274288,-5.161469 19.91062,-7.743018 6.637489,1.84421 13.274278,3.687692 19.91061,5.530728 2.581579,0.830193 5.162554,1.65976 7.74302,2.488828 5.900052,-0.183826 11.799418,-0.368178 17.69832,-0.553073 3.687738,-1.750942 7.374844,-3.502254 11.06145,-5.254192 8.84982,5.4e-4 17.69887,5.4e-4 26.54749,0 2.58158,1.844211 5.16255,3.687696 7.74301,5.530727 7.00622,-0.09164 14.01171,-0.183814 21.01676,-0.276535 6.26878,-2.027493 12.53686,-4.055325 18.80448,-6.083799 5.4e-4,-0.09164 5.4e-4,-0.183816 0,-0.276538 m -259.944138,2.488829 c 7.743511,-2.488332 15.486528,-4.977159 23.229051,-7.466482 5.162576,3.733871 10.324515,7.466977 15.486033,11.199721 4.425136,0.968405 8.849656,1.936255 13.273743,2.903635 2.581534,-3.179791 5.162505,-6.359845 7.743016,-9.540507 4.793857,-1.243964 9.587086,-2.488333 14.379887,-3.73324 5.900017,3.872146 11.7993786,7.743512 17.6983276,11.614527 5.9000138,0.41531 11.7993714,0.8301 17.6983204,1.24441 6.637458,-3.871153 13.274241,-7.74252 19.91062,-11.614525 6.637451,2.765961 13.274231,5.531222 19.91061,8.296091 2.581536,1.244956 5.162508,2.489324 7.74302,3.733244 5.900014,-0.27605 11.799371,-0.55258 17.69832,-0.82961 3.687696,-2.626697 7.374798,-5.253699 11.06145,-7.881289 8.84978,4.95e-4 17.69882,4.95e-4 26.54749,0 2.58153,2.765962 5.1625,5.531226 7.74301,8.296089 7.00618,-0.13777 14.01167,-0.27604 21.01676,-0.4148 6.26874,-3.041518 12.53681,-6.083306 18.80448,-9.125701 5e-4,-0.137779 5e-4,-0.27604 0,-0.414805 m -259.944138,3.733242 c 7.743465,-3.317987 15.486482,-6.636423 23.229051,-9.955309 5.162536,4.978251 10.324469,9.955758 15.486033,14.932961 4.425096,1.290992 8.84961,2.581452 13.273743,3.871512 2.581491,-4.239903 5.162459,-8.480003 7.743016,-12.720674 4.793817,-1.658818 9.58704,-3.317988 14.379887,-4.977654 5.899979,5.162616 11.7993326,10.324472 17.6983276,15.486038 5.899975,0.55353 11.7993254,1.10659 17.6983204,1.65921 6.63742,-5.161712 13.274195,-10.323569 19.91062,-15.486031 6.637413,3.687712 13.274185,7.374751 19.91061,11.061454 2.581493,1.659717 5.162463,3.318887 7.74302,4.977657 5.899975,-0.36828 11.799325,-0.73699 17.69832,-1.10615 3.687655,-3.502445 7.374753,-7.005137 11.06145,-10.50838 8.84975,4.49e-4 17.69878,4.49e-4 26.54749,0 2.58149,3.687713 5.16246,7.374755 7.74301,11.06145 7.00614,-0.18391 14.01162,-0.36826 21.01676,-0.55307 6.2687,-4.055536 12.53676,-8.111281 18.80448,-12.167596 4.5e-4,-0.183915 4.5e-4,-0.368266 0,-0.553073 m -259.944138,4.977655 c 7.743419,-4.147642 15.486436,-8.295687 23.229051,-12.444135 5.162497,6.22263 10.324423,12.444538 15.486033,18.666199 4.425055,1.61357 8.849564,3.22666 13.273743,4.83939 2.581448,-5.30001 5.162413,-10.60016 7.743016,-15.900841 4.793777,-2.073673 9.586994,-4.147643 14.379887,-6.222067 5.89994,6.453085 11.7992866,12.905432 17.6983276,19.357548 5.8999363,0.69176 11.7992794,1.38308 17.6983204,2.07401 6.637383,-6.452272 13.274149,-12.904618 19.91062,-19.357536 6.637374,4.609462 13.274139,9.218279 19.91061,13.826816 2.581449,2.07448 5.162417,4.14845 7.74302,6.22207 5.899936,-0.4605 11.799279,-0.92139 17.69832,-1.38268 3.687614,-4.3782 7.374707,-8.756586 11.06145,-13.135481 8.84971,4.03e-4 17.69873,4.03e-4 26.54749,0 2.58145,4.609464 5.16241,9.218281 7.74301,13.826811 7.0061,-0.23004 14.01158,-0.46048 21.01676,-0.69133 6.26866,-5.069565 12.53672,-10.139266 18.80448,-15.209502 4.1e-4,-0.23005 4.1e-4,-0.46049 0,-0.69134 m -259.944138,6.222068 c 7.743373,-4.977297 15.48639,-9.954951 23.229051,-14.932962 5.162457,7.467011 10.324377,14.933318 15.486033,22.399436 4.425015,1.93616 8.849518,3.87187 13.273743,5.80727 2.581406,-6.36013 5.162367,-12.720317 7.743016,-19.081008 4.793737,-2.488528 9.586948,-4.977297 14.379887,-7.466481 5.899901,7.743555 11.7992406,15.486392 17.6983276,23.229049 5.8998975,0.82999 11.7992334,1.65957 17.6983204,2.48883 6.637345,-7.742841 13.274103,-15.485678 19.91062,-23.229052 6.637336,5.531213 13.274093,11.061808 19.91061,16.592182 2.581406,2.48924 5.162371,4.97801 7.74302,7.46648 5.899898,-0.55273 11.799233,-1.10579 17.69832,-1.65922 3.687573,-5.25395 7.374661,-10.508024 11.06145,-15.762571 8.84968,3.56e-4 17.69868,3.56e-4 26.54749,0 2.58141,5.531214 5.16236,11.061811 7.74301,16.592181 7.00606,-0.27618 14.01153,-0.55272 21.01676,-0.82961 6.26863,-6.08358 12.53667,-12.167241 18.80448,-18.251397 3.6e-4,-0.276186 3.6e-4,-0.552715 0,-0.829609 m -259.944138,7.466482 c 7.743327,-5.806952 15.486344,-11.614215 23.229051,-17.421789 5.162418,8.711391 10.324331,17.422099 15.486033,26.132683 4.424974,2.25873 8.849472,4.51707 13.273743,6.77514 2.581363,-7.42024 5.162321,-14.840475 7.743016,-22.261175 4.793697,-2.903383 9.586902,-5.806952 14.379887,-8.710894 5.899863,9.034024 11.7991946,18.067351 17.6983276,27.100559 5.8998587,0.96821 11.7991864,1.93606 17.6983204,2.90363 6.637308,-9.0334 13.274056,-18.066727 19.91062,-27.100558 6.637298,6.452964 13.274046,12.905338 19.91061,19.357538 2.581363,2.90401 5.162326,5.80758 7.74302,8.7109 5.899859,-0.64495 11.799186,-1.2902 17.69832,-1.93575 3.687531,-6.12971 7.374616,-12.259473 11.06145,-18.389672 8.84964,3.11e-4 17.69864,3.11e-4 26.54749,0 2.58136,6.452965 5.16232,12.905342 7.74301,19.357542 7.00603,-0.32232 14.01149,-0.64494 21.01676,-0.96787 6.26859,-7.09761 12.53663,-14.195226 18.80448,-21.293303 3.2e-4,-0.322321 3.2e-4,-0.644939 0,-0.967876 m -259.944138,8.710895 c 7.743281,-6.636607 15.486298,-13.273479 23.229051,-19.910616 5.162378,9.955771 10.324285,19.91088 15.486033,29.86592 4.424934,2.58132 8.849426,5.16228 13.273743,7.74302 2.58132,-8.48035 5.162275,-16.960632 7.743016,-25.441342 4.793657,-3.318238 9.586856,-6.636607 14.379887,-9.955308 5.899824,10.324494 11.7991486,20.648311 17.6983276,30.97207 5.89982,1.10643 11.7991404,2.21255 17.6983204,3.31843 6.63727,-10.32396 13.27401,-20.647776 19.91062,-30.972064 6.63726,7.374715 13.274,14.748867 19.91061,22.122904 2.58132,3.31877 5.16228,6.63714 7.74302,9.95531 5.89982,-0.73718 11.79914,-1.4746 17.69832,-2.21229 3.68749,-7.00546 7.37457,-14.010911 11.06145,-21.016763 8.84961,2.65e-4 17.69859,2.65e-4 26.54749,0 2.58132,7.374716 5.16227,14.748873 7.74301,22.122903 7.00599,-0.36845 14.01144,-0.73716 21.01676,-1.10614 6.26855,-8.11163 12.53658,-16.223201 18.80448,-24.335198 2.7e-4,-0.368457 2.7e-4,-0.737164 0,-1.106144"
         inkscape:path-effect="#path-effect6108"
         inkscape:original-d="m -93.401828,94.768866 c 7.744017,6.637874 15.487034,13.274744 23.229051,19.910614 5.163011,-9.95431 10.325022,-19.909611 15.486033,-29.865918 4.425581,-2.580007 8.850162,-5.161013 13.273743,-7.74302 2.582005,8.481447 5.163011,16.961893 7.743016,25.441338 4.794296,3.31944 9.587591,6.63787 14.379887,9.95531 5.900443,-10.32302 11.7998846,-20.647045 17.6983276,-30.972068 5.90044,-1.105143 11.7998804,-2.211287 17.6983204,-3.31843 6.63787,10.32502 13.27475,20.64904 19.91062,30.972058 6.63787,-7.3733 13.27474,-14.747599 19.91061,-22.122899 2.58201,-3.317436 5.16301,-6.635873 7.74302,-9.955309 5.90044,0.73843 11.79988,1.47586 17.69832,2.21229 3.68815,7.006587 7.3753,14.012173 11.06145,21.016758 8.85016,0.001 17.69933,0.001 26.54749,0 2.582,-7.373298 5.16301,-14.747598 7.74301,-22.122898 7.00659,0.369713 14.01217,0.738427 21.01676,1.10614 6.26916,8.112733 12.53732,16.224467 18.80448,24.335198 0.001,0.36971 0.001,0.73843 0,1.10614 M -93.401828,94.768866 c 7.743281,-6.636607 15.486298,-13.273479 23.229051,-19.910616 5.162378,9.955771 10.324285,19.91088 15.486033,29.86592 4.424934,2.58132 8.849426,5.16228 13.273743,7.74302 2.58132,-8.48035 5.162275,-16.960632 7.743016,-25.441342 4.793657,-3.318238 9.586856,-6.636607 14.379887,-9.955308 5.899824,10.324494 11.7991486,20.648311 17.6983276,30.97207 5.89982,1.10643 11.7991404,2.21255 17.6983204,3.31843 6.63727,-10.32396 13.27401,-20.647776 19.91062,-30.972064 6.63726,7.374715 13.274,14.748867 19.91061,22.122904 2.58132,3.31877 5.16228,6.63714 7.74302,9.95531 5.89982,-0.73718 11.79914,-1.4746 17.69832,-2.21229 3.68749,-7.00546 7.37457,-14.010911 11.06145,-21.016763 8.84961,2.65e-4 17.69859,2.65e-4 26.54749,0 2.58132,7.374716 5.16227,14.748873 7.74301,22.122903 7.00599,-0.36845 14.01144,-0.73716 21.01676,-1.10614 6.26855,-8.11163 12.53658,-16.223201 18.80448,-24.335198 2.7e-4,-0.368457 2.7e-4,-0.737164 0,-1.106144" />
    </g>
    <g
       id="g6112"
       transform="matrix(0.67338195,0.00863893,-0.01898168,-1.4949829,3.5247591,175.35903)">
      <path
         id="path6110"
         style="fill:none;stroke:#000000;stroke-width:0.264583px;stroke-linecap:butt;stroke-linejoin:miter;stroke-opacity:1"
         d="m 8.849162,91.810056 c 7.744017,6.637876 15.487034,13.274744 23.229051,19.910614 5.163011,-9.95431 10.325022,-19.909611 15.486033,-29.865918 4.425581,-2.580007 8.850162,-5.161013 13.273743,-7.74302 2.582005,8.481447 5.163011,16.961893 7.743016,25.44134 4.794296,3.319438 9.587591,6.637868 14.379887,9.955308 5.900443,-10.323018 11.799885,-20.647045 17.698328,-30.972068 5.90044,-1.105143 11.79988,-2.211287 17.69832,-3.31843 6.63787,10.32502 13.27475,20.64904 19.91062,30.972058 6.63787,-7.373298 13.27474,-14.747599 19.91061,-22.122899 2.58201,-3.317436 5.16301,-6.635873 7.74302,-9.955309 5.90044,0.73843 11.79988,1.47586 17.69832,2.21229 3.68815,7.006587 7.3753,14.012173 11.06145,21.01676 8.85016,10e-4 17.69933,10e-4 26.54749,0 2.582,-7.3733 5.16301,-14.7476 7.74301,-22.1229 7.00659,0.369713 14.01217,0.738427 21.01676,1.10614 6.26916,8.112733 12.53732,16.224467 18.80448,24.335198 0.001,0.36971 0.001,0.73843 0,1.10614 M 8.849162,91.810056 c 7.743971,5.808221 15.486988,11.615484 23.229051,17.421784 5.162971,-8.70993 10.324976,-17.420827 15.486033,-26.132675 4.425541,-2.257424 8.850116,-4.515807 13.273743,-6.775143 2.581962,7.421335 5.162965,14.841736 7.743016,22.261173 4.794256,2.904585 9.587545,5.808215 14.379887,8.710895 5.900404,-9.032549 11.799839,-18.066086 17.698328,-27.10056 5.9004,-0.96692 11.79983,-1.934797 17.69832,-2.903626 6.63783,9.034458 13.2747,18.067989 19.91062,27.100546 6.63783,-6.451543 13.27469,-12.904066 19.91061,-19.357532 2.58197,-2.902673 5.16296,-5.80631 7.74302,-8.710896 5.9004,0.646205 11.79983,1.291457 17.69832,1.935754 3.68811,6.130834 7.37525,12.26073 11.06145,18.389665 8.85013,9.54e-4 17.69928,9.54e-4 26.54749,0 2.58196,-6.451549 5.16296,-12.90407 7.74301,-19.357537 7.00655,0.323578 14.01212,0.646203 21.01676,0.967872 6.26912,7.09871 12.53727,14.196488 18.80448,21.293298 9.5e-4,0.323575 9.5e-4,0.646206 0,0.967876 M 8.849162,91.810056 c 7.743925,4.978566 15.486942,9.956214 23.229051,14.932964 5.162932,-7.465554 10.32493,-14.932053 15.486033,-22.399442 4.4255,-1.934841 8.85007,-3.870601 13.273743,-5.807265 2.581919,6.361222 5.162919,12.721577 7.743016,19.081005 4.794216,2.489732 9.587499,4.978562 14.379887,7.466482 5.900366,-7.74208 11.799793,-15.485127 17.698328,-23.229052 5.90036,-0.828696 11.79979,-1.658307 17.69832,-2.488822 6.6378,7.743897 13.27466,15.486937 19.91062,23.229044 6.63779,-5.529798 13.27465,-11.060542 19.91061,-16.592175 2.58192,-2.487911 5.16292,-4.976747 7.74302,-7.466482 5.90036,0.553979 11.79979,1.107053 17.69832,1.659217 3.68807,5.255082 7.37521,10.509288 11.06145,15.76257 8.85009,9.08e-4 17.69924,9.08e-4 26.54749,0 2.58191,-5.529798 5.16292,-11.060541 7.74301,-16.592174 7.00651,0.277442 14.01208,0.553978 21.01676,0.829604 6.26908,6.084688 12.53723,12.168509 18.80448,18.251399 9.1e-4,0.277439 9.1e-4,0.553981 0,0.829604 M 8.849162,91.810056 c 7.743879,4.14891 15.486896,8.296954 23.229051,12.444134 5.162892,-6.22117 10.324884,-12.44327 15.486033,-18.666199 4.42546,-1.612258 8.850024,-3.225396 13.273743,-4.839387 2.581877,5.30111 5.162873,10.601419 7.743016,15.900837 4.794176,2.074873 9.587453,4.148899 14.379887,6.222069 5.900327,-6.451611 11.799747,-12.904168 17.698328,-19.357544 5.90032,-0.690473 11.79974,-1.381818 17.69832,-2.074019 6.63776,6.453336 13.27461,12.905887 19.91062,19.357533 6.63776,-4.608043 13.2746,-9.217009 19.91061,-13.826808 2.58188,-2.073148 5.16287,-4.147184 7.74302,-6.222068 5.90032,0.461753 11.79974,0.922648 17.69832,1.382681 3.68803,4.379328 7.37516,8.757844 11.06145,13.135474 8.85006,8.62e-4 17.69919,8.62e-4 26.54749,0 2.58187,-4.608047 5.16287,-9.217011 7.74301,-13.826812 7.00648,0.231308 14.01203,0.461755 21.01676,0.691338 6.26905,5.070664 12.53718,10.140529 18.80448,15.209498 8.6e-4,0.231304 8.6e-4,0.461757 0,0.691337 M 8.849162,91.810056 c 7.743833,3.319255 15.48685,6.637688 23.229051,9.955304 5.162853,-4.976787 10.324838,-9.954486 15.486033,-14.932956 4.425419,-1.289675 8.849978,-2.58019 13.273743,-3.87151 2.581834,4.240998 5.162827,8.481262 7.743016,12.720669 4.794136,1.660019 9.587407,3.31925 14.379887,4.977657 5.900288,-5.161142 11.799701,-10.323209 17.698328,-15.486036 5.90028,-0.55225 11.7997,-1.105328 17.69832,-1.659215 6.63772,5.162775 13.27456,10.324836 19.91062,15.486027 6.63772,-3.686294 13.27456,-7.373482 19.91061,-11.061448 2.58184,-1.658384 5.16283,-3.31762 7.74302,-4.977654 5.90029,0.369527 11.79969,0.738245 17.69832,1.106145 3.68798,3.503575 7.37512,7.006402 11.06145,10.508379 8.85002,8.17e-4 17.69914,8.17e-4 26.54749,0 2.58183,-3.686296 5.16283,-7.373482 7.74301,-11.061449 7.00644,0.185172 14.01199,0.36953 21.01676,0.55307 6.26901,4.056642 12.53714,8.11255 18.80448,12.167599 8.2e-4,0.185168 8.2e-4,0.369531 0,0.553069 M 8.849162,91.810056 c 7.743787,2.4896 15.486804,4.978424 23.229051,7.46648 5.162813,-3.73241 10.324792,-7.465708 15.486033,-11.199719 4.425379,-0.967092 8.849932,-1.934984 13.273743,-2.903632 2.581791,3.180885 5.162781,6.361103 7.743016,9.540501 4.794096,1.245165 9.587361,2.489595 14.379887,3.733241 5.90025,-3.870671 11.799655,-7.742246 17.698328,-11.614525 5.90025,-0.414026 11.79965,-0.828838 17.69832,-1.244411 6.63768,3.872213 13.27452,7.743785 19.91062,11.61452 6.63768,-2.764544 13.27451,-5.529954 19.91061,-8.296086 2.58179,-1.243622 5.16278,-2.488056 7.74302,-3.733241 5.90025,0.277302 11.79965,0.553842 17.69832,0.829609 3.68794,2.627823 7.37507,5.254959 11.06145,7.881284 8.84999,7.71e-4 17.6991,7.71e-4 26.54749,0 2.58179,-2.764545 5.16278,-5.529952 7.74301,-8.296086 7.0064,0.139037 14.01194,0.277306 21.01676,0.414802 6.26897,3.042619 12.53709,6.084571 18.80448,9.125699 7.7e-4,0.139033 7.7e-4,0.277307 0,0.414802 M 8.849162,91.810056 c 7.743741,1.659945 15.486758,3.31916 23.229051,4.977653 5.162774,-2.48803 10.324746,-4.976927 15.486033,-7.466479 4.425338,-0.644509 8.849886,-1.289778 13.273743,-1.935755 2.581748,2.120773 5.162735,4.240946 7.743016,6.360334 4.794056,0.83031 9.587315,1.65994 14.379887,2.488827 5.900211,-2.580201 11.799609,-5.161286 17.698328,-7.743016 5.90021,-0.275803 11.7996,-0.552348 17.69832,-0.829607 6.63764,2.581652 13.27447,5.162734 19.91062,7.743012 6.63764,-1.842793 13.27446,-3.686425 19.91061,-5.530723 2.58175,-0.828859 5.16274,-1.658493 7.74302,-2.488827 5.90021,0.185076 11.7996,0.369437 17.69832,0.553072 3.6879,1.75207 7.37503,3.503517 11.06145,5.254189 8.84995,7.25e-4 17.69905,7.25e-4 26.54749,0 2.58174,-1.842794 5.16273,-3.686422 7.74301,-5.530723 7.00636,0.0929 14.0119,0.185081 21.01676,0.276534 6.26893,2.028597 12.53704,4.056592 18.80448,6.0838 7.3e-4,0.0929 7.3e-4,0.185082 0,0.276533 M 8.849162,91.810056 c 7.743695,0.83029 15.486712,1.659896 23.229051,2.488826 5.162734,-1.24365 10.3247,-2.488146 15.486033,-3.733239 4.425298,-0.321926 8.84984,-0.644572 13.273743,-0.967877 2.581705,1.06066 5.162689,2.120788 7.743016,3.180166 4.794016,0.415455 9.587269,0.830285 14.379887,1.244414 5.900172,-1.289732 11.799563,-2.580327 17.698328,-3.871508 5.90017,-0.13758 11.79956,-0.275858 17.69832,-0.414804 6.63761,1.291092 13.27443,2.581683 19.91062,3.871505 6.6376,-0.921042 13.27442,-1.842895 19.91061,-2.76536 2.58171,-0.414096 5.16269,-0.82893 7.74302,-1.244414 5.90017,0.09285 11.79956,0.185034 17.69832,0.276537 3.68786,0.876316 7.37498,1.752074 11.06145,2.627093 8.84992,6.79e-4 17.69901,6.79e-4 26.54749,0 2.5817,-0.921043 5.16269,-1.842893 7.74301,-2.765361 7.00633,0.04677 14.01185,0.09286 21.01676,0.138268 6.26889,1.014573 12.537,2.028612 18.80448,3.041899 6.8e-4,0.04676 6.8e-4,0.09286 0,0.138266 M 8.849162,91.810056 c 7.743649,6.35e-4 15.486666,6.33e-4 23.229051,-10e-7 5.162695,7.3e-4 10.324654,6.35e-4 15.486033,10e-7 4.425258,6.57e-4 8.849794,6.33e-4 13.273743,0 2.581663,5.48e-4 5.162643,6.31e-4 7.743016,-10e-7 4.793977,6e-4 9.587224,6.3e-4 14.379887,0 5.900133,7.38e-4 11.799517,6.33e-4 17.698328,10e-7 5.90013,6.43e-4 11.79951,6.31e-4 17.69832,0 6.63757,5.3e-4 13.27438,6.32e-4 19.91062,-3e-6 6.63756,7.08e-4 13.27437,6.34e-4 19.91061,3e-6 2.58166,6.66e-4 5.16264,6.33e-4 7.74302,0 5.90013,6.25e-4 11.79951,6.3e-4 17.69832,0 3.68782,5.64e-4 7.37494,6.31e-4 11.06145,-10e-7 8.84988,6.32e-4 17.69896,6.32e-4 26.54749,0 2.58166,7.08e-4 5.16264,6.36e-4 7.74301,10e-7 7.00629,6.32e-4 14.0118,6.33e-4 21.01676,0 6.26885,5.51e-4 12.53695,6.33e-4 18.80448,0 6.4e-4,6.26e-4 6.4e-4,6.33e-4 0,-2e-6 m -259.944138,2e-6 c 7.743603,-0.829021 15.48662,-1.658631 23.229051,-2.488828 5.162655,1.245111 10.324607,2.489415 15.486033,3.733241 4.425217,0.323239 8.849748,0.645839 13.273743,0.967878 2.58162,-1.059564 5.162597,-2.119528 7.743016,-3.180169 4.793937,-0.414255 9.587178,-0.829024 14.379887,-1.244414 5.900095,1.291208 11.799471,2.581593 17.698328,3.87151 5.90009,0.138867 11.79946,0.277121 17.69832,0.414804 6.63753,-1.290031 13.27433,-2.580419 19.91062,-3.871511 6.63753,0.922459 13.27432,1.844163 19.91061,2.765366 2.58162,0.415429 5.1626,0.830196 7.74302,1.244414 5.90009,-0.0916 11.79946,-0.183774 17.69832,-0.276537 3.68778,-0.875189 7.37489,-1.750811 11.06145,-2.627096 8.84985,5.86e-4 17.69891,5.86e-4 26.54749,0 2.58162,0.922459 5.16259,1.844166 7.74301,2.765364 7.00625,-0.0455 14.01176,-0.09159 21.01676,-0.138268 6.26882,-1.013471 12.5369,-2.027346 18.80448,-3.041899 5.9e-4,-0.04551 5.9e-4,-0.09159 0,-0.13827 M 8.849162,91.810056 c 7.743557,-1.658676 15.486574,-3.317895 23.229051,-4.977655 5.162615,2.489491 10.324561,4.978196 15.486033,7.466481 4.425177,0.645822 8.849702,1.291045 13.273743,1.935755 2.581577,-2.119676 5.162551,-4.239685 7.743016,-6.360336 4.793897,-0.82911 9.587132,-1.658679 14.379887,-2.488827 5.900056,2.581677 11.799425,5.162552 17.698328,7.743018 5.90005,0.27709 11.79942,0.553611 17.69832,0.829608 6.6375,-2.580593 13.27429,-5.161471 19.91062,-7.743019 6.63749,1.84421 13.27428,3.687693 19.91061,5.530729 2.58158,0.830192 5.16255,1.659759 7.74302,2.488827 5.90005,-0.183826 11.79942,-0.368177 17.69832,-0.553072 3.68774,-1.750943 7.37484,-3.502255 11.06145,-5.254192 8.84982,5.4e-4 17.69887,5.4e-4 26.54749,0 2.58158,1.84421 5.16255,3.687695 7.74301,5.530727 7.00622,-0.09164 14.01171,-0.183815 21.01676,-0.276535 6.26878,-2.027495 12.53686,-4.055326 18.80448,-6.0838 5.4e-4,-0.09164 5.4e-4,-0.183816 0,-0.276537 M 8.849162,91.810056 c 7.743511,-2.488331 15.486528,-4.977159 23.229051,-7.466482 5.162576,3.733871 10.324515,7.466977 15.486033,11.199721 4.425136,0.968405 8.849656,1.936251 13.273743,2.903632 2.581534,-3.179788 5.162505,-6.359842 7.743016,-9.540503 4.793857,-1.243965 9.587086,-2.488334 14.379887,-3.733241 5.900017,3.872147 11.799379,7.743512 17.698328,11.614527 5.90001,0.415313 11.79937,0.830101 17.69832,1.244411 6.63746,-3.871153 13.27424,-7.742521 19.91062,-11.614526 6.63745,2.765961 13.27423,5.531222 19.91061,8.296092 2.58154,1.244955 5.16251,2.489322 7.74302,3.73324 5.90001,-0.276051 11.79937,-0.552581 17.69832,-0.829608 3.6877,-2.626696 7.3748,-5.253697 11.06145,-7.881287 8.84978,4.94e-4 17.69882,4.94e-4 26.54749,0 2.58153,2.765961 5.1625,5.531225 7.74301,8.296089 7.00618,-0.137774 14.01167,-0.276039 21.01676,-0.414802 6.26874,-3.041517 12.53681,-6.083305 18.80448,-9.1257 5e-4,-0.137779 5e-4,-0.27604 0,-0.414805 M 8.849162,91.810056 c 7.743465,-3.317986 15.486482,-6.636423 23.229051,-9.955308 5.162536,4.97825 10.324469,9.955757 15.486033,14.93296 4.425096,1.290988 8.84961,2.581457 13.273743,3.871512 2.581491,-4.239903 5.162459,-8.480003 7.743016,-12.720673 4.793817,-1.658819 9.58704,-3.317989 14.379887,-4.977654 5.899979,5.162616 11.799333,10.324472 17.698328,15.486035 5.89998,0.553537 11.79933,1.106591 17.69832,1.659212 6.63742,-5.161712 13.2742,-10.323569 19.91062,-15.48603 6.63741,3.687711 13.27418,7.37475 19.91061,11.061454 2.58149,1.659717 5.16246,3.318886 7.74302,4.977656 5.89997,-0.36828 11.79932,-0.736987 17.69832,-1.106147 3.68765,-3.502448 7.37475,-7.00514 11.06145,-10.508382 8.84975,4.49e-4 17.69877,4.49e-4 26.54749,0 2.58149,3.687712 5.16246,7.374755 7.74301,11.061449 7.00614,-0.183906 14.01162,-0.36826 21.01676,-0.553067 6.2687,-4.05554 12.53677,-8.111284 18.80448,-12.167599 4.5e-4,-0.183915 4.5e-4,-0.368266 0,-0.553073 M 8.849162,91.810056 c 7.743419,-4.147641 15.486436,-8.295687 23.229051,-12.444135 5.162497,6.22263 10.324423,12.444538 15.486033,18.6662 4.425055,1.613571 8.849564,3.226659 13.273743,4.839389 2.581448,-5.300015 5.162413,-10.60016 7.743016,-15.900841 4.793777,-2.073673 9.586994,-4.147643 14.379887,-6.222067 5.89994,6.453085 11.799287,12.905432 17.698328,19.357548 5.89994,0.69176 11.79928,1.38308 17.69832,2.07401 6.63738,-6.452271 13.27415,-12.904618 19.91062,-19.357536 6.63737,4.609462 13.27414,9.218279 19.91061,13.826816 2.58145,2.074481 5.16242,4.14845 7.74302,6.22207 5.89994,-0.4605 11.79928,-0.92139 17.69832,-1.38268 3.68761,-4.378204 7.37471,-8.756585 11.06145,-13.13548 8.84971,4.03e-4 17.69873,4.03e-4 26.54749,0 2.58145,4.609463 5.16241,9.218284 7.74301,13.82681 7.0061,-0.23004 14.01158,-0.46048 21.01676,-0.69133 6.26866,-5.069565 12.53672,-10.139266 18.80448,-15.209501 4.1e-4,-0.230051 4.1e-4,-0.460491 0,-0.691341 M 8.849162,91.810056 c 7.743373,-4.977297 15.48639,-9.954951 23.229051,-14.932962 5.162457,7.467011 10.324377,14.933318 15.486033,22.39944 4.425015,1.936156 8.849518,3.871866 13.273743,5.807266 2.581406,-6.360126 5.162367,-12.720317 7.743016,-19.081008 4.793737,-2.488528 9.586948,-4.977297 14.379887,-7.466481 5.899901,7.743555 11.799241,15.486392 17.698328,23.229049 5.8999,0.82999 11.79923,1.65957 17.69832,2.48883 6.63735,-7.742841 13.2741,-15.485678 19.91062,-23.229052 6.63734,5.531213 13.27409,11.061809 19.91061,16.592179 2.58141,2.489243 5.16237,4.978013 7.74302,7.466483 5.8999,-0.55273 11.79923,-1.10579 17.69832,-1.65922 3.68757,-5.253953 7.37466,-10.508024 11.06145,-15.762571 8.84968,3.57e-4 17.69868,3.57e-4 26.54749,0 2.58141,5.531214 5.16236,11.061814 7.74301,16.592181 7.00607,-0.27618 14.01153,-0.55272 21.01676,-0.82961 6.26863,-6.083584 12.53667,-12.167241 18.80448,-18.251397 3.6e-4,-0.276186 3.6e-4,-0.552715 0,-0.829608 M 8.849162,91.810056 c 7.743327,-5.806952 15.486344,-11.614215 23.229051,-17.421789 5.162418,8.711391 10.324331,17.422099 15.486033,26.132683 4.424974,2.25873 8.849472,4.51707 13.273743,6.77514 2.581363,-7.420238 5.162321,-14.840475 7.743016,-22.261175 4.793697,-2.903383 9.586902,-5.806952 14.379887,-8.710894 5.899863,9.034024 11.799195,18.067351 17.698328,27.100559 5.89986,0.96821 11.79919,1.93606 17.69832,2.90363 6.63731,-9.0334 13.27406,-18.066727 19.91062,-27.100558 6.6373,6.452964 13.27405,12.905338 19.91061,19.357542 2.58136,2.904006 5.16233,5.807576 7.74302,8.710896 5.89986,-0.64495 11.79919,-1.2902 17.69832,-1.93575 3.68753,-6.129711 7.37462,-12.259472 11.06145,-18.389672 8.84964,3.11e-4 17.69864,3.11e-4 26.54749,0 2.58136,6.452965 5.16232,12.905343 7.74301,19.357542 7.00603,-0.32232 14.01149,-0.64494 21.01676,-0.96787 6.26859,-7.097612 12.53663,-14.195226 18.80448,-21.293302 3.2e-4,-0.322322 3.2e-4,-0.64494 0,-0.967877 M 8.849162,91.810056 C 16.592443,85.173449 24.33546,78.536577 32.078213,71.89944 c 5.162378,9.955771 10.324285,19.91088 15.486033,29.86592 4.424934,2.58132 8.849426,5.16228 13.273743,7.74302 2.58132,-8.48035 5.162275,-16.960632 7.743016,-25.441342 4.793657,-3.318238 9.586856,-6.636607 14.379887,-9.955308 5.899824,10.324494 11.799149,20.648311 17.698328,30.97207 5.89982,1.10643 11.79914,2.21255 17.69832,3.31843 6.63727,-10.32396 13.27401,-20.647776 19.91062,-30.972064 6.63726,7.374715 13.274,14.748867 19.91061,22.122905 2.58132,3.318769 5.16228,6.637139 7.74302,9.955309 5.89982,-0.73718 11.79914,-1.4746 17.69832,-2.21229 3.68749,-7.00546 7.37457,-14.010911 11.06145,-21.016763 8.84961,2.65e-4 17.69859,2.65e-4 26.54749,0 2.58132,7.374716 5.16227,14.748873 7.74301,22.122903 7.00599,-0.36845 14.01144,-0.73716 21.01676,-1.10614 6.26855,-8.111631 12.53658,-16.223201 18.80448,-24.335198 2.7e-4,-0.368457 2.7e-4,-0.737164 0,-1.106144"
         inkscape:path-effect="#path-effect6116"
         inkscape:original-d="m 8.849162,91.810056 c 7.744017,6.637876 15.487034,13.274744 23.229051,19.910614 5.163011,-9.95431 10.325022,-19.909611 15.486033,-29.865918 4.425581,-2.580007 8.850162,-5.161013 13.273743,-7.74302 2.582005,8.481447 5.163011,16.961893 7.743016,25.44134 4.794296,3.319438 9.587591,6.637868 14.379887,9.955308 5.900443,-10.323018 11.799885,-20.647045 17.698328,-30.972068 5.90044,-1.105143 11.79988,-2.211287 17.69832,-3.31843 6.63787,10.32502 13.27475,20.64904 19.91062,30.972058 6.63787,-7.373298 13.27474,-14.747599 19.91061,-22.122899 2.58201,-3.317436 5.16301,-6.635873 7.74302,-9.955309 5.90044,0.73843 11.79988,1.47586 17.69832,2.21229 3.68815,7.006587 7.3753,14.012173 11.06145,21.01676 8.85016,10e-4 17.69933,10e-4 26.54749,0 2.582,-7.3733 5.16301,-14.7476 7.74301,-22.1229 7.00659,0.369713 14.01217,0.738427 21.01676,1.10614 6.26916,8.112733 12.53732,16.224467 18.80448,24.335198 0.001,0.36971 0.001,0.73843 0,1.10614 M 8.849162,91.810056 C 16.592443,85.173449 24.33546,78.536577 32.078213,71.89944 c 5.162378,9.955771 10.324285,19.91088 15.486033,29.86592 4.424934,2.58132 8.849426,5.16228 13.273743,7.74302 2.58132,-8.48035 5.162275,-16.960632 7.743016,-25.441342 4.793657,-3.318238 9.586856,-6.636607 14.379887,-9.955308 5.899824,10.324494 11.799149,20.648311 17.698328,30.97207 5.89982,1.10643 11.79914,2.21255 17.69832,3.31843 6.63727,-10.32396 13.27401,-20.647776 19.91062,-30.972064 6.63726,7.374715 13.274,14.748867 19.91061,22.122905 2.58132,3.318769 5.16228,6.637139 7.74302,9.955309 5.89982,-0.73718 11.79914,-1.4746 17.69832,-2.21229 3.68749,-7.00546 7.37457,-14.010911 11.06145,-21.016763 8.84961,2.65e-4 17.69859,2.65e-4 26.54749,0 2.58132,7.374716 5.16227,14.748873 7.74301,22.122903 7.00599,-0.36845 14.01144,-0.73716 21.01676,-1.10614 6.26855,-8.111631 12.53658,-16.223201 18.80448,-24.335198 2.7e-4,-0.368457 2.7e-4,-0.737164 0,-1.106144" />
    </g>
  </g>
</svg>
