<?xml version="1.0" encoding="UTF-8" standalone="no"?>
<!-- Created with Inkscape (http://www.inkscape.org/) -->

<svg
   width="297mm"
   height="50mm"
   viewBox="0 0 297 50"
   version="1.1"
   id="svg5"
   inkscape:version="1.1 (c68e22c387, 2021-05-23)"
   sodipodi:docname="InterpolatePathEffect.svg"
   xmlns:inkscape="http://www.inkscape.org/namespaces/inkscape"
   xmlns:sodipodi="http://sodipodi.sourceforge.net/DTD/sodipodi-0.dtd"
   xmlns="http://www.w3.org/2000/svg"
   xmlns:svg="http://www.w3.org/2000/svg">
  <sodipodi:namedview
     id="namedview7"
     pagecolor="#ffffff"
     bordercolor="#666666"
     borderopacity="1.0"
     inkscape:pageshadow="2"
     inkscape:pageopacity="0.0"
     inkscape:pagecheckerboard="0"
     inkscape:document-units="mm"
     showgrid="false"
     inkscape:zoom="0.47838805"
     inkscape:cx="346.99864"
     inkscape:cy="351.17934"
     inkscape:window-width="1366"
     inkscape:window-height="715"
     inkscape:window-x="-8"
     inkscape:window-y="-8"
     inkscape:window-maximized="1"
     inkscape:current-layer="layer1" />
  <defs
     id="defs2">
    <inkscape:path-effect
       effect="interpolate"
       id="path-effect4686"
       is_visible="true"
       lpeversion="1"
       trajectory="m 148.23305,29.841012 0.15348,-12.195103"
       equidistant_spacing="true"
       steps="17" />
    <inkscape:path-effect
       effect="curvestitching"
       id="path-effect4608"
       is_visible="true"
       lpeversion="1"
       count="17"
       startpoint_edge_variation="-0.3;1"
       startpoint_spacing_variation="0;1"
       endpoint_edge_variation="0;1"
       endpoint_spacing_variation="0;1"
       strokepath="M 10.869389,68.237594 126.60038,16.80184"
       prop_scale="1"
       scale_y_rel="false"
       strokepath-nodetypes="cc" />
    <inkscape:path-effect
       effect="interpolate_points"
       id="path-effect4606"
       is_visible="true"
       lpeversion="1"
       interpolator_type="CentripetalCatmullRom" />
    <inkscape:path-effect
       effect="interpolate"
       id="path-effect4396"
       is_visible="true"
       lpeversion="1"
       trajectory="m 112.9807,78.572979 c 0,0 -56.051844,-17.260043 16.0391,-16.799263"
       equidistant_spacing="true"
       steps="34"
       trajectory-nodetypes="cc" />
    <inkscape:path-effect
       effect="spiro"
       id="path-effect4250"
       is_visible="true"
       lpeversion="1" />
    <inkscape:path-effect
       effect="spiro"
       id="path-effect4164"
       is_visible="true"
       lpeversion="1" />
    <inkscape:path-effect
       effect="spiro"
       id="path-effect4160"
       is_visible="true"
       lpeversion="1" />
    <inkscape:path-effect
       effect="bspline"
       id="path-effect3862"
       is_visible="true"
       lpeversion="1"
       weight="33.333333"
       steps="7"
       helper_size="0"
       apply_no_weight="true"
       apply_with_weight="true"
       only_selected="false" />
    <inkscape:path-effect
       effect="bspline"
       id="path-effect3856"
       is_visible="true"
       lpeversion="1"
       weight="33.333333"
       steps="2"
       helper_size="0"
       apply_no_weight="true"
       apply_with_weight="true"
       only_selected="false" />
    <inkscape:path-effect
       effect="interpolate"
       id="path-effect3659"
       is_visible="true"
       lpeversion="1"
       trajectory="M 0,0 V 0"
       equidistant_spacing="true"
       steps="17" />
    <inkscape:path-effect
       effect="interpolate"
       id="path-effect3520"
       is_visible="true"
       lpeversion="1"
       trajectory="M 0,0 V 0"
       equidistant_spacing="true"
       steps="12" />
    <inkscape:path-effect
       effect="spiro"
       id="path-effect2711"
       is_visible="true"
       lpeversion="1" />
    <inkscape:path-effect
       effect="spiro"
       id="path-effect2568"
       is_visible="true"
       lpeversion="1" />
    <inkscape:path-effect
       effect="spiro"
       id="path-effect2498"
       is_visible="true"
       lpeversion="1" />
    <inkscape:path-effect
       effect="interpolate"
       id="path-effect1890"
       is_visible="true"
       lpeversion="1"
       trajectory="M 0,0 V 0"
       equidistant_spacing="true"
       steps="6" />
    <inkscape:path-effect
       effect="fill_between_strokes"
       id="path-effect1888"
       is_visible="true"
       lpeversion="1"
       linkedpath=""
       secondpath=""
       reversesecond="false"
       join="true"
       close="true" />
    <filter
       id="selectable_hidder_filter"
       width="1"
       height="1"
       x="0"
       y="0"
       style="color-interpolation-filters:sRGB"
       inkscape:label="LPE boolean visibility">
      <feComposite
         id="boolops_hidder_primitive"
         result="composite1"
         operator="arithmetic"
         in2="SourceGraphic"
         in="BackgroundImage"
         k1="0"
         k2="0"
         k3="0"
         k4="0" />
    </filter>
    <inkscape:path-effect
       effect="bool_op"
       id="path-effect1884"
       is_visible="true"
       lpeversion="1"
       operand-path=""
       operation="cut"
       swap-operands="false"
       rmv-inner="false"
       filltype-this="from-curve"
       filter=""
       filltype-operand="from-curve" />
    <inkscape:path-effect
       effect="spiro"
       id="path-effect1802"
       is_visible="true"
       lpeversion="1" />
    <inkscape:path-effect
       effect="spiro"
       id="path-effect1557"
       is_visible="true"
       lpeversion="1" />
    <inkscape:path-effect
       effect="spiro"
       id="path-effect1421"
       is_visible="true"
       lpeversion="1" />
    <inkscape:path-effect
       effect="spiro"
       id="path-effect863"
       is_visible="true"
       lpeversion="1" />
    <inkscape:path-effect
       effect="spiro"
       id="path-effect859"
       is_visible="true"
       lpeversion="1" />
  </defs>
  <g
     inkscape:label="Layer 1"
     inkscape:groupmode="layer"
     id="layer1">
    <g
       id="g3946" />
    <path
       style="fill:none;stroke:#000000;stroke-width:0.243205px;stroke-linecap:butt;stroke-linejoin:miter;stroke-opacity:1"
       d="m -46.719198,13.145362 -2.330676,0.92384"
       id="path4158"
       inkscape:path-effect="#path-effect4160"
       inkscape:original-d="m -46.719198,13.145362 c 0.777162,-0.308161 -1.554065,0.616108 -2.330676,0.92384" />
    <path
       id="path4246"
       style="fill:none;stroke:#000000;stroke-width:0.358252px;stroke-linecap:butt;stroke-linejoin:miter;stroke-opacity:1"
       d="m 289.75421,22.872972 c 0.10542,-3.267622 -0.72096,-6.560162 -2.35693,-9.39072 -0.1636,-0.283056 -0.33524,-0.561403 -0.51456,-0.834692 -1.61393,-2.459603 -3.85023,-4.5095235 -6.44582,-5.89538 -0.57679,-0.3079681 -1.17097,-0.5829492 -1.7786,-0.8240971 -2.43052,-0.9645918 -5.0763,-1.3878537 -7.68608,-1.2156375 -0.97867,0.064581 -1.95135,0.2128402 -2.90529,0.4402057 -2.22585,0.5305196 -4.34965,1.4917292 -6.20929,2.8255503 -1.21915,0.8744335 -2.31463,1.8957499 -3.3094,3.0149576 -1.49215,1.678813 -2.75772,3.577881 -3.87426,5.531859 -0.93045,1.628316 -1.7698,3.305659 -2.60431,4.985734 -0.83451,1.680074 -1.66418,3.362881 -2.57524,5.002124 -1.09326,1.967091 -2.32056,3.888059 -3.7686,5.605428 -0.96535,1.144913 -2.02882,2.199336 -3.21607,3.116612 -1.03885,0.802616 -2.16844,1.49416 -3.36754,2.025938 -0.5139,0.227905 -1.04057,0.426466 -1.57833,0.591849 -1.43404,0.44102 -2.94824,0.642109 -4.44365,0.546722 -0.37385,-0.02385 -0.74652,-0.06622 -1.11648,-0.128013 -1.6981,-0.283615 -3.3121,-0.969787 -4.76785,-1.893068 -0.16175,-0.102587 -0.32154,-0.208101 -0.47928,-0.316315 -1.57741,-1.082144 -2.95801,-2.430137 -4.21195,-3.874742 -2.50787,-2.88921 -4.53326,-6.179653 -7.13828,-8.981585 -0.48684,-0.52364 -0.99245,-1.027873 -1.51523,-1.5127 -4.705,-4.363447 -10.80058,-7.155021 -17.11878,-8.375049 -1.40405,-0.271117 -2.81886,-0.468012 -4.23979,-0.597007 -5.68371,-0.515981 -11.46522,0.05442 -17.04644,1.306416 -4.18592,0.939 -8.25277,2.246734 -12.25314,3.762318 -9.33421,3.536361 -18.30651,8.204348 -27.58506,11.960132 -3.804,1.539789 -7.70423,2.933464 -11.67111,4.024431 -5.95032,1.636451 -12.05061,2.591808 -18.2011,2.337569 C 100.48256,35.893011 95.299262,34.783068 90.276921,33.092953 85.25458,31.402837 80.393192,29.132547 75.743813,26.593051 70.164558,23.545655 64.818213,20.10109 59.452531,16.687486 55.87541,14.41175 52.289695,12.149775 48.620647,10.028413 44.181661,7.4618904 39.479908,5.0662543 34.54606,3.829135 32.431554,3.2989411 30.274418,2.981536 28.077066,2.9546631 c -2.929802,-0.03583 -5.891315,0.4693745 -8.578795,1.6172463 -0.67187,0.286968 -1.326613,0.6141026 -1.959452,0.9829919 -2.847774,1.6600019 -5.223127,4.1990444 -6.493668,7.2299207 -0.141171,0.336764 -0.268703,0.6796 -0.381727,1.027977 -0.396954,1.223538 -0.615596,2.504768 -0.646883,3.790707 m 279.737669,5.269466 c 0.0475,-2.714189 -0.93544,-5.478684 -2.76337,-7.938225 -0.1828,-0.245954 -0.37399,-0.488775 -0.57318,-0.728237 -1.79269,-2.155159 -4.22727,-4.041199 -6.96706,-5.4222573 -0.60884,-0.3069019 -1.23241,-0.5886848 -1.86605,-0.8445843 -2.43454,-0.9769873 -5.05398,-1.4778611 -7.62427,-1.4367087 -0.96386,0.015432 -1.91994,0.1070296 -2.85636,0.2713051 -2.18499,0.3833095 -4.26377,1.1620756 -6.09112,2.287442 -1.19092,0.748301 -2.26465,1.6334152 -3.24398,2.6104582 -1.469,1.465564 -2.72596,3.137502 -3.84776,4.864412 -0.93482,1.439091 -1.78742,2.926572 -2.64104,4.421128 -0.85362,1.494557 -1.70871,2.996091 -2.64631,4.464981 -1.12512,1.762669 -2.38483,3.493899 -3.86073,5.05259 -1.03009,1.01911 -2.15946,1.975397 -3.40752,2.821711 -1.21019,0.728598 -2.51354,1.410041 -3.86519,1.980426 -0.57928,0.244451 -1.16791,0.468012 -1.76474,0.665555 -1.59155,0.526782 -3.24251,0.864796 -4.86767,0.931923 -0.40629,0.01678 -0.81116,0.01673 -1.21339,-0.0014 -1.84125,-0.08673 -3.60197,-0.547974 -5.23474,-1.264364 -0.18141,-0.0796 -0.36131,-0.16235 -0.53956,-0.248104 -1.78254,-0.857543 -3.40927,-2.011515 -4.92564,-3.367586 -2.60339,-2.709934 -4.75062,-5.857045 -7.42868,-8.574597 -0.47999,-0.499986 -0.97746,-0.982063 -1.49089,-1.446199 -4.62085,-4.17722 -10.53612,-6.901083 -16.65991,-8.151711 -1.36084,-0.277917 -2.73176,-0.486255 -4.10851,-0.63072 -5.6099,-0.632123 -11.31682,-0.237882 -16.84564,0.821122 -4.03546,0.837283 -7.96064,2.023877 -11.8251,3.409895 -9.01706,3.234042 -17.70439,7.554306 -26.68047,11.057641 -3.72479,1.433432 -7.54032,2.742374 -11.4174,3.782435 -5.88565,1.567744 -11.90152,2.552275 -17.95118,2.437756 C 99.348075,34.597136 94.261641,33.684024 89.33699,32.239481 84.41234,30.794938 79.647567,28.819215 75.084405,26.595194 69.608611,23.926369 64.355278,20.89108 59.077333,17.875752 55.589309,15.842676 52.090136,13.820396 48.508415,11.922105 44.098386,9.6743407 39.428468,7.5627869 34.52028,6.4826395 32.477351,6.002651 30.393623,5.719545 28.271665,5.7058768 25.359797,5.7030192 22.414438,6.1865021 19.727981,7.2453596 19.056367,7.510074 18.400937,7.8107112 17.766366,8.148738 c -2.855569,1.5211208 -5.26168,3.830796 -6.607535,6.564021 -0.157976,0.29779 -0.302412,0.600238 -0.432446,0.906924 -0.612883,0.947892 -0.9785211,1.854269 -1.0414608,2.748892 M 289.75421,22.872972 c -0.0104,-2.160755 -1.14992,-4.397206 -3.16982,-6.485729 -0.20199,-0.208852 -0.41274,-0.416147 -0.63179,-0.621782 -1.97144,-1.850715 -4.60431,-3.572875 -7.4883,-4.949136 -0.64088,-0.305835 -1.29385,-0.59442 -1.95349,-0.865071 -2.43857,-0.989383 -5.03167,-1.5678686 -7.56247,-1.65778 -0.94905,-0.033717 -1.88853,0.00122 -2.80744,0.1024044 -2.14412,0.2360994 -4.17789,0.832422 -5.97294,1.7493336 -1.16268,0.622169 -2.21466,1.371082 -3.17856,2.205958 -1.44585,1.252316 -2.6942,2.697124 -3.82125,4.196965 -0.93921,1.249868 -1.80504,2.547486 -2.67777,3.856524 -0.87274,1.309038 -1.75325,2.629301 -2.7174,3.927838 -1.15697,1.558245 -2.44908,3.099739 -3.95286,4.49975 -1.09482,0.893308 -2.29008,1.751458 -3.59895,2.526811 -1.38153,0.65458 -2.85865,1.325922 -4.36285,1.934913 -0.64465,0.260997 -1.29526,0.509559 -1.95115,0.739263 -1.74905,0.612543 -3.53678,1.087483 -5.2917,1.317124 -0.43873,0.05741 -0.87578,0.09967 -1.31029,0.125237 -1.9844,0.110163 -3.89184,-0.126162 -5.70162,-0.635661 -0.20109,-0.05661 -0.40108,-0.116599 -0.59985,-0.179893 -1.98767,-0.632943 -3.86052,-1.592893 -5.63933,-2.860431 -2.69891,-2.530656 -4.96799,-5.534436 -7.71907,-8.167608 -0.47316,-0.476333 -0.96249,-0.936253 -1.46656,-1.379697 -4.53671,-3.990993 -10.27167,-6.647146 -16.20103,-7.928374 -1.31764,-0.284717 -2.64468,-0.504498 -3.97724,-0.664433 -5.5361,-0.748264 -11.16843,-0.530181 -16.64484,0.335828 -3.88499,0.735566 -7.66852,1.801019 -11.39705,3.057472 -8.69992,2.931723 -17.10227,6.904264 -25.77589,10.155151 -3.64557,1.327073 -7.37641,2.551283 -11.1637,3.540438 -5.82097,1.499038 -11.75242,2.512743 -17.70124,2.537943 -5.104167,0.01493 -10.093741,-0.70135 -14.9207,-1.90032 -4.826959,-1.198971 -9.495118,-2.880128 -13.972062,-4.788673 -5.372334,-2.290253 -10.532654,-4.916268 -15.722863,-7.53332 -3.398927,-1.790415 -6.811558,-3.573 -10.305952,-5.24822 C 44.015111,11.886791 39.377028,10.059319 34.4945,9.136144 32.523148,8.7063609 30.512829,8.457554 28.466263,8.4570904 c -2.893932,0.030115 -5.823138,0.4918763 -8.508572,1.4617194 -0.671358,0.2424612 -1.327475,0.5166002 -1.963778,0.8237652 -2.863364,1.382239 -5.300233,3.462547 -6.721401,5.898121 -0.174782,0.258816 -0.336122,0.520875 -0.483166,0.78587 -0.8288123,0.672247 -1.3414465,1.20377 -1.4360385,1.707078 M 289.75421,22.872972 c -0.0683,-1.607321 -1.3644,-3.315728 -3.57626,-5.033234 -0.22119,-0.17175 -0.45149,-0.343519 -0.6904,-0.515327 -2.15021,-1.546271 -4.98136,-3.10455 -8.00955,-4.476013 -0.67293,-0.304769 -1.35529,-0.600156 -2.04094,-0.885558 -2.44259,-1.001779 -5.00935,-1.657877 -7.50066,-1.878852 -0.93424,-0.08286 -1.85713,-0.1045914 -2.75852,-0.0665 -2.10325,0.08889 -4.09201,0.502768 -5.85476,1.211226 -1.13445,0.496036 -2.16468,1.108747 -3.11314,1.801458 -1.4227,1.039067 -2.66244,2.256745 -3.79475,3.529518 -0.94359,1.060644 -1.82266,2.1684 -2.7145,3.291919 -0.89184,1.123519 -1.79779,2.26251 -2.78847,3.390695 -1.18883,1.353822 -2.51335,2.705578 -4.045,3.946911 -1.15955,0.767505 -2.42071,1.527518 -3.79039,2.23191 -1.55287,0.580562 -3.20375,1.241803 -4.8605,1.889401 -0.71003,0.277542 -1.42261,0.551105 -2.13756,0.812969 -1.90656,0.698305 -3.83105,1.31017 -5.71573,1.702325 -0.47117,0.09804 -0.94041,0.182624 -1.40719,0.251862 -2.12755,0.307053 -4.18171,0.295651 -6.16851,-0.007 -0.22076,-0.03362 -0.44085,-0.07085 -0.66013,-0.111682 -2.19281,-0.408342 -4.31178,-1.174271 -6.35302,-2.353275 -2.79442,-2.351379 -5.18535,-5.211828 -8.00947,-7.76062 -0.46631,-0.452679 -0.9475,-0.890444 -1.44223,-1.313195 -4.45256,-3.804767 -10.0072,-6.39321 -15.74214,-7.705037 -1.27443,-0.291517 -2.55759,-0.522741 -3.84598,-0.698146 -5.46228,-0.864405 -11.02002,-0.82248 -16.44403,-0.149467 -3.73453,0.633849 -7.37639,1.578162 -10.96901,2.70505 -8.38278,2.629405 -16.50015,6.254222 -24.87129,9.25266 -3.56637,1.220715 -7.21252,2.360192 -10.91,3.298442 -5.7563,1.430331 -11.60332,2.47321 -17.45132,2.63813 C 97.07911,32.005387 92.186398,31.485936 87.457129,30.532538 82.727861,29.579141 78.156317,28.19255 73.76559,26.599481 68.496717,24.687798 63.429409,22.471058 58.326937,20.252282 c -3.30983,-1.547754 -6.635919,-3.090645 -10.042986,-4.542793 -4.352114,-1.610248 -8.958363,-3.153637 -13.81523,-3.91984 -1.899776,-0.379578 -3.836687,-0.594086 -5.80786,-0.581345 -2.875997,0.06309 -5.789049,0.503127 -8.473459,1.383956 -0.671103,0.220207 -1.327907,0.46785 -1.965943,0.744151 -2.871158,1.243359 -5.338785,3.094299 -6.835267,5.232222 -0.191587,0.219843 -0.369831,0.441513 -0.533885,0.664817 -1.0447415,0.396602 -1.7043719,0.55327 -1.8306163,0.665263 M 289.75421,22.872972 c -0.12621,-1.053888 -1.57888,-2.234251 -3.98271,-3.580738 -0.24038,-0.134649 -0.49023,-0.270892 -0.74901,-0.408873 -2.32897,-1.241827 -5.3584,-2.636225 -8.53079,-4.00289 -0.70497,-0.303704 -1.41673,-0.605892 -2.12838,-0.906046 -2.44662,-1.014174 -4.98704,-1.747883 -7.43886,-2.099922 -0.91944,-0.132015 -1.82572,-0.210403 -2.7096,-0.235397 -2.06238,-0.05832 -4.00613,0.173114 -5.73658,0.673117 -1.10621,0.369903 -2.1147,0.846413 -3.04773,1.396959 -1.39954,0.825818 -2.63067,1.816366 -3.76824,2.86207 -0.94797,0.87142 -1.84027,1.789314 -2.75123,2.727315 -0.91095,0.938001 -1.84232,1.895719 -2.85955,2.853552 -1.22067,1.149399 -2.5776,2.311418 -4.13712,3.394072 -1.22429,0.641702 -2.55135,1.303578 -3.98184,1.937009 -1.72421,0.506544 -3.54885,1.157685 -5.35814,1.843889 -0.77542,0.294087 -1.54996,0.592651 -2.32399,0.886675 -2.06405,0.784067 -4.12531,1.532857 -6.13975,2.087527 -0.50361,0.138667 -1.00504,0.265573 -1.50409,0.378487 -2.2707,0.503941 -4.47157,0.717462 -6.6354,0.621746 -0.24042,-0.01064 -0.48061,-0.0251 -0.72041,-0.04347 -2.39794,-0.183741 -4.76303,-0.755649 -7.0667,-1.84612 -2.88995,-2.172101 -5.40273,-4.889219 -8.29988,-7.353631 -0.45947,-0.429026 -0.93251,-0.844634 -1.41789,-1.246694 -4.36842,-3.618539 -9.74275,-6.139272 -15.28327,-7.481699 -1.23122,-0.298317 -2.47049,-0.540984 -3.7147,-0.731859 -5.38847,-0.980547 -10.87162,-1.114778 -16.24322,-0.634761 -3.58407,0.532132 -7.08428,1.355305 -10.54098,2.352627 -8.06563,2.327086 -15.89803,5.604181 -23.9667,8.350169 -3.48715,1.114357 -7.04861,2.169102 -10.6563,3.056447 -5.69163,1.361624 -11.45422,2.433677 -17.20138,2.738316 -4.915142,0.248664 -9.710993,-0.07396 -14.342571,-0.781781 C 81.885621,28.971242 77.410692,27.879218 73.106182,26.601624 67.94077,25.068512 62.966475,23.261047 57.95174,21.440548 54.731005,20.135454 51.491458,18.832258 48.171719,17.603181 43.848562,16.311692 39.274147,15.052385 34.442941,14.443153 32.614742,14.113781 30.75124,13.933572 28.85546,13.959518 c -2.858063,0.09606 -5.754961,0.514378 -8.438348,1.306192 -0.670846,0.197954 -1.328338,0.419099 -1.968106,0.664538 -2.878953,1.104477 -5.377338,2.72605 -6.949134,4.566321 -0.208392,0.18087 -0.40354,0.362151 -0.584604,0.543764 -1.2606706,0.120957 -2.0672973,-0.09723 -2.2251941,-0.376551 m 281.0641361,2.20919 c -0.18412,-0.500454 -1.79336,-1.152773 -4.38915,-2.128242 -0.25958,-0.09755 -0.52899,-0.198265 -0.80762,-0.302418 -2.50773,-0.937383 -5.73545,-2.167902 -9.05204,-3.529769 -0.73702,-0.302637 -1.47817,-0.611627 -2.21583,-0.926532 -2.45064,-1.02657 -4.96472,-1.837891 -7.37705,-2.320994 -0.90463,-0.181163 -1.79431,-0.316213 -2.66067,-0.404298 -2.02152,-0.20553 -3.92025,-0.156539 -5.61841,0.13501 -1.07797,0.24377 -2.06472,0.584078 -2.98231,0.992458 -1.37638,0.61257 -2.59891,1.375988 -3.74174,2.194624 -0.95235,0.682196 -1.85789,1.410228 -2.78795,2.16271 -0.93007,0.752482 -1.88686,1.528929 -2.93063,2.316409 -1.25253,0.944975 -2.64186,1.917257 -4.22926,2.841232 -1.28901,0.5159 -2.68198,1.079639 -4.17327,1.64211 -1.89555,0.432525 -3.89396,1.073565 -5.8558,1.798375 -0.84079,0.310633 -1.67731,0.634197 -2.5104,0.960383 -2.22156,0.869828 -4.41958,1.755543 -6.56378,2.472727 -0.53605,0.179296 -1.06966,0.348523 -1.60099,0.505112 -2.41385,0.700831 -4.76144,1.139275 -7.10229,1.25045 -0.26009,0.01235 -0.52038,0.02065 -0.78069,0.02474 -2.60307,0.04086 -5.21429,-0.337027 -7.78039,-1.338964 -2.98546,-1.992825 -5.62009,-4.566611 -8.59028,-6.946643 -0.45262,-0.405372 -0.91752,-0.798824 -1.39355,-1.180192 -4.28428,-3.432313 -9.47829,-5.885335 -14.82439,-7.258362 -1.18802,-0.305117 -2.3834,-0.559227 -3.58343,-0.765572 -5.31467,-1.096688 -10.72323,-1.407077 -16.04242,-1.120055 -3.43361,0.430414 -6.79215,1.132447 -10.11293,2.000204 -7.74849,2.024767 -15.29592,4.954139 -23.06212,7.447679 -3.40793,1.007998 -6.8847,1.97801 -10.40259,2.81445 -5.62696,1.292917 -11.30513,2.394145 -16.951458,2.838503 -4.820626,0.36553 -9.519617,0.23974 -14.053503,-0.222512 -4.533887,-0.462252 -8.912202,-1.25971 -13.130494,-2.221827 -5.061952,-1.154542 -9.943235,-2.552732 -14.870233,-3.974955 -3.131638,-1.062433 -6.284643,-2.125934 -9.517055,-3.13194 -4.2942,-0.972731 -8.83678,-1.947956 -13.642326,-2.400216 -1.756622,-0.279167 -3.546715,-0.425076 -5.367103,-0.385926 -2.840128,0.129034 -5.720872,0.525629 -8.403235,1.228429 -0.670591,0.175701 -1.32877,0.370348 -1.97027,0.584925 -2.886748,0.965596 -5.41589,2.357801 -7.063001,3.900421 -0.225197,0.141896 -0.437249,0.282789 -0.635322,0.422711 C 9.5016293,22.692528 8.5480062,22.099489 8.3584572,21.428852 m 281.3957528,1.44412 c -0.24203,0.05298 -2.00784,-0.07129 -4.79559,-0.675747 -0.27878,-0.06044 -0.56774,-0.125636 -0.86624,-0.195963 -2.68649,-0.632939 -6.11249,-1.699577 -9.57328,-3.056646 -0.76906,-0.301571 -1.53961,-0.617363 -2.30328,-0.94702 -2.45467,-1.038965 -4.9424,-1.927898 -7.31525,-2.542065 -0.88981,-0.230312 -1.76289,-0.422023 -2.61174,-0.573198 -1.98065,-0.352741 -3.83437,-0.486193 -5.50023,-0.403099 -1.04974,0.117638 -2.01473,0.321744 -2.91689,0.587959 -1.35323,0.399322 -2.56715,0.93561 -3.71524,1.527176 -0.95673,0.492972 -1.8755,1.031142 -2.82468,1.598106 -0.94917,0.566963 -1.9314,1.162138 -3.00171,1.779265 -1.28438,0.740553 -2.70612,1.523097 -4.32139,2.288394 -1.35374,0.390097 -2.81261,0.855699 -4.36471,1.347209 -2.06689,0.358507 -4.23906,0.989446 -6.35345,1.752863 -0.90617,0.327178 -1.80466,0.675743 -2.69681,1.034089 -2.37906,0.95559 -4.71385,1.97823 -6.98781,2.857928 -0.56849,0.219925 -1.13429,0.431472 -1.69789,0.631738 -2.557,0.89772 -5.05131,1.561087 -7.56918,1.879153 -0.27976,0.03534 -0.56014,0.0664 -0.84096,0.09295 -2.80822,0.26546 -5.66555,0.0816 -8.49409,-0.831809 -3.08098,-1.813547 -5.83746,-4.244003 -8.88067,-6.539654 -0.44579,-0.381719 -0.90255,-0.753014 -1.36923,-1.113691 -4.20013,-3.246085 -9.21383,-5.631398 -14.36551,-7.035024 -1.14481,-0.311917 -2.2963,-0.577471 -3.45215,-0.799285 -5.24086,-1.212829 -10.57483,-1.699376 -15.84162,-1.60535 -3.28314,0.328698 -6.50002,0.90959 -9.68489,1.647782 -7.43135,1.722448 -14.6938,4.304097 -22.15753,6.545188 -3.32872,0.90164 -6.72079,1.78692 -10.14889,2.572454 -5.56228,1.224211 -11.15603,2.354612 -16.701524,2.93869 -4.726112,0.482397 -9.328242,0.553437 -13.764438,0.336758 C 80.201142,27.755445 75.919443,27.252553 71.787367,26.605911 66.828876,25.829941 62.040606,24.841026 57.201344,23.817079 54.158803,22.997306 51.09234,22.1735 47.947255,21.390565 43.682012,20.736593 39.171267,20.04545 34.391381,19.750162 32.706337,19.5212 30.989651,19.40959 29.244656,19.461945 c -2.822193,0.162007 -5.686783,0.53688 -8.368123,1.150666 -0.670335,0.153446 -1.329201,0.321596 -1.972433,0.505311 -2.894543,0.826714 -5.454443,1.989552 -7.176868,3.234521 -0.242003,0.102922 -0.470958,0.203426 -0.686041,0.301657 C 9.3486611,24.223766 8.2480418,23.255873 8.0268404,22.193921 M 289.75421,22.872972 c -0.29993,0.606413 -2.22232,1.010183 -5.20204,0.776749 -0.29797,-0.02334 -0.60649,-0.05301 -0.92485,-0.08951 -2.86524,-0.328495 -6.48953,-1.231252 -10.09452,-2.583523 -0.8011,-0.300505 -1.60105,-0.623099 -2.39072,-0.967507 -2.4587,-1.051361 -4.9201,-2.017906 -7.25345,-2.763136 -0.875,-0.279462 -1.73148,-0.527835 -2.56282,-0.742099 -1.93978,-0.499951 -3.74849,-0.815847 -5.38205,-0.941208 -1.0215,-0.0085 -1.96475,0.05941 -2.85147,0.183459 -1.33008,0.186074 -2.53539,0.495232 -3.68873,0.85973 -0.96112,0.303748 -1.89313,0.652055 -2.86141,1.0335 -0.96829,0.381445 -1.97594,0.795349 -3.0728,1.242123 -1.31622,0.53613 -2.77037,1.128937 -4.41351,1.735555 -1.41848,0.264294 -2.94325,0.631759 -4.55616,1.052308 -2.23823,0.284488 -4.58416,0.905327 -6.8511,1.70735 -0.97155,0.343724 -1.932,0.71729 -2.88322,1.107797 -2.53657,1.041351 -5.00812,2.200916 -7.41183,3.243129 -0.60093,0.260553 -1.19892,0.514421 -1.7948,0.758362 -2.70015,1.094609 -5.34118,1.9829 -8.03606,2.507856 -0.29944,0.05833 -0.59992,0.112158 -0.90125,0.161164 -3.01335,0.49006 -6.11681,0.500216 -9.20778,-0.324654 -3.17649,-1.63427 -6.05482,-3.921395 -9.17107,-6.132666 -0.43894,-0.358066 -0.88756,-0.707205 -1.34489,-1.047189 -4.11598,-3.059859 -8.94937,-5.377461 -13.90663,-6.811687 -1.10161,-0.318717 -2.20922,-0.595714 -3.32089,-0.832998 -5.16704,-1.328971 -10.42642,-1.991674 -15.64081,-2.090644 -3.13268,0.22698 -6.2079,0.686732 -9.25684,1.295359 -7.11421,1.420129 -14.09169,3.654055 -21.25295,5.642697 -3.2495,0.795282 -6.55688,1.59583 -9.89518,2.330458 -5.49761,1.155504 -11.00694,2.31508 -16.4516,3.038877 -4.631598,0.599263 -9.136868,0.867134 -13.475372,0.896027 -4.338505,0.02889 -8.52359,-0.179432 -12.569449,-0.510598 -4.855029,-0.397399 -9.550287,-0.977039 -14.301813,-1.60271 -2.953444,-0.577112 -5.933365,-1.161223 -8.991123,-1.721087 -4.236285,-0.335214 -8.715196,-0.742275 -13.469422,-0.880591 -1.613467,-0.178756 -3.256744,-0.256067 -4.926346,-0.190507 -2.804259,0.19498 -5.652695,0.54813 -8.333011,1.072902 -0.67008,0.131193 -1.329634,0.272845 -1.974597,0.425697 -2.902338,0.687834 -5.492996,1.621304 -7.290735,2.568622 -0.258808,0.06395 -0.504667,0.124064 -0.73676,0.180604 C 9.195693,25.755005 7.9480774,24.412258 7.6952236,22.95899 M 289.75421,22.872972 c -0.35784,1.159847 -2.4368,2.091661 -5.60848,2.229244 -0.31717,0.01376 -0.64524,0.01962 -0.98346,0.01695 -3.04401,-0.02405 -6.86658,-0.762928 -10.61577,-2.110401 -0.83315,-0.299439 -1.6625,-0.628835 -2.47817,-0.987995 -2.46272,-1.063756 -4.89778,-2.107913 -7.19164,-2.984207 -0.8602,-0.32861 -1.70007,-0.633645 -2.51389,-0.911 -1.89892,-0.647161 -3.66262,-1.1455 -5.26388,-1.479315 -0.99326,-0.134627 -1.91477,-0.202925 -2.78605,-0.221041 -1.30693,-0.02717 -2.50363,0.05485 -3.66223,0.192282 -0.9655,0.114524 -1.91074,0.27297 -2.89814,0.468896 -0.9874,0.195927 -2.02047,0.428558 -3.14387,0.70498 -1.34808,0.331706 -2.83464,0.734776 -4.50565,1.182715 -1.48321,0.138492 -3.07388,0.40782 -4.74759,0.757408 -2.40957,0.21047 -4.92927,0.821208 -7.34876,1.661838 -1.03692,0.360269 -2.05935,0.758836 -3.06963,1.181503 -2.69407,1.127113 -5.30238,2.423603 -7.83586,3.62833 -0.63337,0.301182 -1.26355,0.59737 -1.89169,0.884988 -2.84332,1.291498 -5.63106,2.404712 -8.50296,3.136559 -0.3191,0.08132 -0.63968,0.157909 -0.96153,0.229375 -3.21848,0.71466 -6.56806,0.918838 -9.92147,0.182502 -3.27201,-1.454993 -6.27218,-3.598787 -9.46147,-5.725678 -0.4321,-0.334412 -0.87257,-0.661395 -1.32055,-0.980687 -4.03184,-2.873632 -8.68492,-5.123524 -13.44775,-6.58835 -1.05841,-0.325517 -2.12213,-0.613957 -3.18962,-0.86671 -5.09324,-1.445113 -10.27803,-2.283974 -15.44,-2.575939 -2.98222,0.125263 -5.91578,0.463875 -8.82881,0.942936 -6.79706,1.11781 -13.48957,3.004013 -20.34836,4.740207 -3.17029,0.688923 -6.39298,1.404738 -9.64148,2.088461 -5.43294,1.086798 -10.85783,2.275547 -16.201665,3.139064 -4.537085,0.716129 -8.945494,1.18083 -13.186308,1.455297 -4.240814,0.274467 -8.329284,0.360707 -12.288925,0.345017 -4.751569,-0.01883 -9.353815,-0.189194 -14.017604,-0.416589 -2.864348,-0.334451 -5.757727,-0.678867 -8.728157,-1.01566 -4.207328,-0.01646 -8.654405,-0.139434 -13.38297,-0.120778 -1.54189,-0.128551 -3.111759,-0.171563 -4.705968,-0.0928 -2.786323,0.227953 -5.618606,0.559382 -8.297899,0.995139 -0.669823,0.108939 -1.330065,0.224095 -1.976761,0.346084 -2.910132,0.548952 -5.531548,1.253055 -7.4046,1.902722 -0.275614,0.02497 -0.538377,0.0447 -0.78748,0.05955 -2.1243881,-0.981625 -3.519,-2.699226 -3.8035061,-4.543809 M 289.75421,22.872972 c -0.41575,1.71328 -2.65129,3.173138 -6.01493,3.68174 -0.33636,0.05086 -0.68398,0.09225 -1.04207,0.123401 -3.22277,0.280393 -7.24362,-0.294604 -11.137,-1.637279 -0.8652,-0.298372 -1.72395,-0.63457 -2.56563,-1.008481 -2.46674,-1.076152 -4.87546,-2.197921 -7.12983,-3.205279 -0.84539,-0.377759 -1.66867,-0.739455 -2.46497,-1.0799 -1.85805,-0.794371 -3.57673,-1.475154 -5.1457,-2.017424 -0.96503,-0.260759 -1.86479,-0.465259 -2.72064,-0.625541 -1.28377,-0.240423 -2.47186,-0.385525 -3.63572,-0.475165 -0.96988,-0.0747 -1.92836,-0.106116 -2.93486,-0.09571 -1.00651,0.01041 -2.06502,0.06177 -3.21496,0.167837 -1.37993,0.127283 -2.89889,0.340615 -4.59778,0.629876 -1.54794,0.01269 -3.20451,0.18388 -4.93903,0.462507 -2.58091,0.136452 -5.27437,0.737089 -7.84641,1.616325 -1.1023,0.376815 -2.18669,0.800383 -3.25604,1.255211 -2.85158,1.212873 -5.59665,2.64629 -8.25989,4.01353 -0.66581,0.34181 -1.32817,0.68032 -1.98859,1.011613 -2.98647,1.488387 -5.92093,2.826524 -8.96985,3.765263 -0.33877,0.104304 -0.67945,0.20366 -1.02181,0.297586 -3.42362,0.939261 -7.01932,1.33746 -10.63516,0.689657 -3.36753,-1.275716 -6.48955,-3.276178 -9.75187,-5.318689 -0.42525,-0.310759 -0.85759,-0.615585 -1.29622,-0.914186 -3.94769,-2.687405 -8.42045,-4.869587 -12.98887,-6.365012 -1.0152,-0.332317 -2.03503,-0.6322 -3.05834,-0.900423 -5.01943,-1.561255 -10.12963,-2.576273 -15.2392,-3.061234 -2.83176,0.02355 -5.62366,0.241018 -8.40076,0.590514 -6.47992,0.815491 -12.88746,2.353972 -19.44377,3.837716 -3.09108,0.582566 -6.22908,1.213648 -9.38778,1.846465 -5.36827,1.018091 -10.708743,2.236015 -15.951741,3.239251 -4.442571,0.832995 -8.754119,1.494527 -12.897242,2.014567 -4.143124,0.520039 -8.134979,0.900846 -12.008403,1.200631 -4.648108,0.359742 -9.157341,0.598652 -13.733394,0.769534 -2.775251,-0.09179 -5.582088,-0.196513 -8.465191,-0.310234 -4.178371,0.302303 -8.593613,0.463407 -13.296518,0.639034 -1.470313,-0.07834 -2.966773,-0.08706 -4.485589,0.0049 -2.768389,0.260926 -5.584517,0.570632 -8.262788,0.917375 -0.669567,0.08669 -1.330496,0.175344 -1.978924,0.266471 -2.917927,0.410071 -5.570101,0.884806 -7.518467,1.236822 -0.292419,-0.014 -0.572086,-0.03466 -0.838199,-0.0615 C 8.8897567,28.817481 7.3481485,26.725026 7.0319901,24.489128 M 289.75421,22.872972 c -0.47366,2.266714 -2.86577,4.254616 -6.42137,5.134235 -0.35556,0.08796 -0.72274,0.164875 -1.10069,0.229857 -3.40152,0.584836 -7.62066,0.17372 -11.65824,-1.164157 -0.89725,-0.297306 -1.78539,-0.640305 -2.65307,-1.028968 -2.47077,-1.088548 -4.85315,-2.287929 -7.06803,-3.42635 -0.83058,-0.426908 -1.63726,-0.845267 -2.41605,-1.248801 -1.81717,-0.941582 -3.49085,-1.804808 -5.02752,-2.555532 -0.93679,-0.386892 -1.8148,-0.727594 -2.65522,-1.030041 -1.26062,-0.453672 -2.44011,-0.825904 -3.60922,-1.142612 -0.97426,-0.263924 -1.94597,-0.485203 -2.97159,-0.660313 -1.02562,-0.175111 -2.10955,-0.305023 -3.28603,-0.369307 -1.41178,-0.07714 -2.96315,-0.05354 -4.68991,0.07704 -1.61267,-0.113113 -3.33515,-0.04006 -5.13047,0.167607 -2.75226,0.06243 -5.61948,0.65297 -8.34407,1.570813 -1.16768,0.393361 -2.31404,0.841929 -3.44245,1.328917 -3.00908,1.298635 -5.89092,2.868977 -8.68392,4.398732 -0.69825,0.382438 -1.3928,0.763268 -2.08549,1.138238 -3.12962,1.685276 -6.2108,3.248336 -9.43674,4.393966 -0.35844,0.127292 -0.71921,0.249411 -1.08209,0.365797 -3.62875,1.163862 -7.47057,1.756082 -11.34885,1.196813 -3.46304,-1.096439 -6.70691,-2.95357 -10.04226,-4.911701 -0.41842,-0.287105 -0.84261,-0.569775 -1.27189,-0.847684 -3.86355,-2.501178 -8.156,-4.61565 -12.52999,-6.141675 -0.972,-0.339117 -1.94794,-0.650443 -2.92707,-0.934136 -4.94562,-1.677396 -9.98123,-2.868571 -15.0384,-3.546528 -2.68129,-0.07817 -5.33153,0.01816 -7.97272,0.238091 -6.16278,0.513172 -12.28534,1.70393 -18.53918,2.935225 -3.01186,0.476208 -6.06517,1.022557 -9.13408,1.604469 -5.30359,0.949384 -10.559641,2.196482 -15.701807,3.339438 -4.348057,0.949862 -8.562745,1.808224 -12.608177,2.573836 -4.045432,0.765612 -7.940673,1.440985 -11.727879,2.056246 -4.544648,0.738314 -8.960869,1.386498 -13.449185,1.955656 -2.686154,0.15087 -5.406449,0.285843 -8.202225,0.395193 -4.149414,0.621061 -8.532821,1.066247 -13.210065,1.398847 -1.398737,-0.02814 -2.821788,-0.0026 -4.265212,0.10262 -2.750454,0.293898 -5.550428,0.581883 -8.227675,0.839612 -0.669312,0.06443 -1.330928,0.126592 -1.981088,0.186856 -2.925722,0.271191 -5.608654,0.516558 -7.632334,0.570923 -0.309224,-0.05297 -0.605795,-0.114023 -0.888918,-0.182556 C 8.7367886,30.34872 7.0481841,27.881411 6.7003733,25.254197 M 289.75421,22.872972 c -0.53157,2.820148 -3.08025,5.336094 -6.82782,6.586731 -0.37475,0.125064 -0.76148,0.237502 -1.15929,0.336311 -3.58029,0.88928 -7.99771,0.642045 -12.17949,-0.691034 -0.92929,-0.29624 -1.84683,-0.646041 -2.74052,-1.049456 -2.47479,-1.100943 -4.83083,-2.377936 -7.00622,-3.647421 -0.81577,-0.476057 -1.60585,-0.951077 -2.36713,-1.417702 -1.7763,-1.088791 -3.40497,-2.134461 -4.90934,-3.09364 -0.90855,-0.513024 -1.76482,-0.989928 -2.5898,-1.434541 -1.23747,-0.66692 -2.40835,-1.266282 -3.58272,-1.810059 -0.97864,-0.453147 -1.96359,-0.864288 -3.00832,-1.224917 -1.04473,-0.360629 -2.15408,-0.671814 -3.35711,-0.90645 -1.44363,-0.281563 -3.02741,-0.447705 -4.78204,-0.475802 -1.6774,-0.238916 -3.46578,-0.263999 -5.32191,-0.127294 -2.92359,-0.01158 -5.96458,0.568852 -8.84172,1.5253 -1.23305,0.409907 -2.44139,0.883476 -3.62886,1.402625 -3.16659,1.384396 -6.18519,3.091663 -9.10795,4.783932 -0.73069,0.423067 -1.45742,0.846218 -2.18239,1.264863 -3.27277,1.882166 -6.50066,3.670149 -9.90363,5.02267 -0.3781,0.15028 -0.75898,0.295162 -1.14237,0.434008 -3.83388,1.388462 -7.92182,2.174704 -12.06254,1.703968 -3.55856,-0.917161 -6.92428,-2.630961 -10.33266,-4.504712 -0.41157,-0.263452 -0.82762,-0.523966 -1.24755,-0.781182 -3.77941,-2.314951 -7.89154,-4.361713 -12.07112,-5.918338 -0.92879,-0.345917 -1.86084,-0.668687 -2.7958,-0.967849 -4.87181,-1.793537 -9.83283,-3.16087 -14.83758,-4.031822 -2.53084,-0.179889 -5.03942,-0.204697 -7.54469,-0.114332 -5.84563,0.210854 -11.68322,1.053888 -17.63459,2.032735 -2.93265,0.369849 -5.90126,0.831466 -8.88037,1.362472 -5.23892,0.880678 -10.410549,2.15695 -15.451882,3.439625 -4.253544,1.066728 -8.371371,2.121921 -12.319112,3.133106 -3.947742,1.011185 -7.746368,1.981124 -11.447357,2.911861 -4.441187,1.116884 -8.764395,2.174344 -13.164975,3.141777 -2.597057,0.393531 -5.23081,0.768199 -7.939259,1.10062 -4.120457,0.939819 -8.472029,1.669088 -13.123613,2.158659 -1.32716,0.02207 -2.676803,0.08195 -4.044834,0.200329 -2.732519,0.326872 -5.516339,0.593135 -8.192563,0.761849 -0.669056,0.04218 -1.331359,0.07784 -1.983251,0.107243 -2.933517,0.132309 -5.647207,0.148309 -7.746201,-0.09498 -0.326029,-0.09195 -0.639504,-0.193386 -0.939637,-0.30361 C 8.5838205,31.879958 6.7482197,29.037795 6.3687565,26.019266 M 289.75421,22.872972 c -0.58948,3.373581 -3.29473,6.417572 -7.23426,8.039226 -0.39395,0.162166 -0.80024,0.31013 -1.21791,0.442766 -3.75905,1.193725 -8.37474,1.11037 -12.70073,-0.217912 -0.96134,-0.295173 -1.90827,-0.651776 -2.82796,-1.069942 -2.47882,-1.113339 -4.80852,-2.467944 -6.94442,-3.868493 -0.80096,-0.525205 -1.57444,-1.056887 -2.3182,-1.586602 -1.73544,-1.236001 -3.3191,-2.464115 -4.79117,-3.631749 -0.88032,-0.639156 -1.71484,-1.252261 -2.52438,-1.83904 -1.21432,-0.880168 -2.37659,-1.706661 -3.55622,-2.477506 -0.98302,-0.642371 -1.9812,-1.243375 -3.04504,-1.789523 -1.06384,-0.546147 -2.19863,-1.038604 -3.42819,-1.443592 -1.47549,-0.485986 -3.09167,-0.841866 -4.87417,-1.028641 -1.74214,-0.364719 -3.59642,-0.487939 -5.51336,-0.422195 -3.09493,-0.0856 -6.30968,0.484733 -9.33936,1.479788 -1.29844,0.426452 -2.56874,0.925022 -3.81528,1.476331 -3.32409,1.470158 -6.47946,3.31435 -9.53198,5.169133 -0.76313,0.463696 -1.52205,0.929167 -2.27929,1.391489 -3.41592,2.079054 -6.79053,4.091961 -10.37051,5.651373 -0.39778,0.173268 -0.79875,0.340913 -1.20266,0.502219 -4.03901,1.613063 -8.37308,2.593326 -12.77622,2.211124 -3.65408,-0.737884 -7.14165,-2.308354 -10.62307,-4.097724 -0.40473,-0.239799 -0.81263,-0.478156 -1.22322,-0.714681 -3.69525,-2.128724 -7.62708,-4.107775 -11.61223,-5.695 -0.88559,-0.352717 -1.77376,-0.68693 -2.66453,-1.001562 -4.798,-1.909679 -9.68443,-3.453169 -14.63678,-4.517117 -2.38037,-0.281605 -4.74729,-0.427554 -7.11664,-0.466754 -5.52849,-0.09146 -11.08111,0.403846 -16.73001,1.130244 -2.85343,0.263491 -5.73735,0.640376 -8.62667,1.120476 -5.17425,0.811971 -10.261447,2.117417 -15.201948,3.539812 -4.15903,1.183594 -8.179996,2.435617 -12.030047,3.692375 -3.85005,1.256758 -7.552062,2.521264 -11.166834,3.767476 -4.337726,1.495455 -8.567921,2.96219 -12.880764,4.3279 -2.507961,0.636191 -5.055173,1.250554 -7.676294,1.806047 -4.091499,1.258577 -8.411238,2.271928 -13.037161,2.918471 -1.255583,0.07227 -2.531817,0.166455 -3.824455,0.298038 -2.714585,0.359844 -5.482251,0.604385 -8.157451,0.684085 -0.6688,0.01993 -1.331791,0.02909 -1.985415,0.02763 -2.941312,-0.0066 -5.68576,-0.21994 -7.860068,-0.760878 C 12.066479,35.789144 11.7361,35.647317 11.418957,35.495402 8.4308523,33.411196 6.4482553,30.194179 6.0371398,26.784335 M 289.75421,22.872972 c -0.64738,3.927015 -3.50921,7.49905 -7.64071,9.491722 -0.41314,0.199267 -0.83898,0.382758 -1.27652,0.549221 -3.9378,1.498168 -8.75178,1.578693 -13.22197,0.25521 -0.99338,-0.294107 -1.96971,-0.657512 -2.91541,-1.09043 -2.48284,-1.125734 -4.7862,-2.557951 -6.88261,-4.089563 -0.78616,-0.574355 -1.54303,-1.162699 -2.26928,-1.755504 -1.69457,-1.383211 -3.23321,-2.793768 -4.673,-4.169856 -0.85207,-0.765289 -1.66485,-1.514596 -2.45895,-2.243541 -1.19116,-1.093416 -2.34483,-2.147039 -3.52971,-3.144953 -0.98741,-0.831595 -1.99883,-1.622461 -3.08178,-2.354127 -1.08295,-0.731666 -2.24316,-1.405394 -3.49927,-1.980735 -1.50734,-0.690409 -3.15592,-1.236026 -4.9663,-1.581481 -1.80687,-0.490521 -3.72705,-0.711878 -5.70479,-0.717095 -3.26628,-0.1596202 -6.65479,0.400614 -9.83702,1.434275 -1.36382,0.442998 -2.69609,0.966569 -4.00169,1.550039 -3.4816,1.555919 -6.77373,3.537036 -9.95601,5.554334 -0.79556,0.504324 -1.58668,1.012116 -2.37619,1.518113 -3.55907,2.275944 -7.0804,4.513774 -10.8374,6.280077 -0.41745,0.196256 -0.83852,0.386664 -1.26293,0.57043 -4.24416,1.837664 -8.82434,3.011948 -13.48992,2.718279 -3.7496,-0.558607 -7.35902,-1.985745 -10.91347,-3.690735 -0.39788,-0.216145 -0.79765,-0.432346 -1.19888,-0.648179 -3.61111,-1.942497 -7.36262,-3.853839 -11.15335,-5.471663 -0.84239,-0.359517 -1.68667,-0.705173 -2.53326,-1.035275 -4.7242,-2.02582 -9.53603,-3.745467 -14.43598,-5.002411 -2.22991,-0.383323 -4.45516,-0.650412 -6.6886,-0.819177 -5.21134,-0.393784 -10.47899,-0.246195 -15.82542,0.227753 -2.77421,0.157133 -5.57345,0.449285 -8.37296,0.87848 -5.109578,0.743265 -10.112355,2.077885 -14.952024,3.639999 -4.064517,1.300461 -7.988622,2.749314 -11.740981,4.251645 -3.75236,1.50233 -7.357757,3.061402 -10.886311,4.623091 -4.234265,1.874025 -8.371449,3.750035 -12.596555,5.514021 -2.418865,0.878852 -4.879534,1.73291 -7.413328,2.511474 -4.062542,1.577335 -8.350446,2.874768 -12.950709,3.678283 -1.184006,0.122477 -2.386832,0.250961 -3.604077,0.395748 -2.69665,0.392817 -5.448162,0.615636 -8.122339,0.606321 -0.668544,-0.0023 -1.332222,-0.01966 -1.987579,-0.05198 -2.949106,-0.145453 -5.724311,-0.588187 -7.973934,-1.426777 -0.359639,-0.169893 -0.706922,-0.35211 -1.041075,-0.545716 C 8.2778842,34.942434 6.1482908,31.350564 5.705523,27.549405 M 289.75421,22.872972 c -0.70529,4.480448 -3.72369,8.580527 -8.04715,10.944218 -0.43235,0.236369 -0.87774,0.455385 -1.33513,0.655675 -4.11657,1.802612 -9.12883,2.047018 -13.74322,0.728333 -1.02542,-0.293042 -2.03115,-0.663248 -3.00286,-1.110917 -2.48686,-1.13813 -4.76388,-2.647959 -6.8208,-4.310635 -0.77135,-0.623504 -1.51163,-1.268509 -2.22036,-1.924404 -1.6537,-1.530421 -3.14733,-3.123422 -4.55482,-4.707965 -0.82383,-0.891422 -1.61487,-1.77693 -2.39354,-2.64804 -1.168,-1.306665 -2.31306,-2.587418 -3.5032,-3.8124 -0.99179,-1.020819 -2.01644,-2.001547 -3.1185,-2.918732 -1.10207,-0.917184 -2.2877,-1.772185 -3.57036,-2.517878 -1.53918,-0.894833 -3.22018,-1.6301869 -5.05843,-2.1343199 -1.8716,-0.6163244 -3.85767,-0.9358178 -5.89623,-1.0119959 -3.43761,-0.2336385 -6.99989,0.3164947 -10.33467,1.3887625 -1.42919,0.4595433 -2.82344,1.0081153 -4.1881,1.6237453 -3.6391,1.641681 -7.068,3.759723 -10.38003,5.939535 -0.82801,0.544953 -1.65131,1.095066 -2.4731,1.644738 -3.70222,2.472834 -7.37027,4.935586 -11.30429,6.908781 -0.43711,0.219243 -0.87828,0.432415 -1.32321,0.638641 -4.44929,2.062264 -9.2756,3.43057 -14.20361,3.225435 -3.84512,-0.37933 -7.57638,-1.663137 -11.20386,-3.283747 -0.39105,-0.192492 -0.78267,-0.386536 -1.17455,-0.581678 -3.52697,-1.75627 -7.09817,-3.599901 -10.69448,-5.248325 -0.79918,-0.366317 -1.59957,-0.723416 -2.40198,-1.068988 -4.65039,-2.141961 -9.38764,-4.037766 -14.23518,-5.487705 -2.07944,-0.48504 -4.16304,-0.873269 -6.26055,-1.1716 -4.89421,-0.696103 -9.87688,-0.896237 -14.92083,-0.674737 -2.69501,0.05077 -5.40955,0.258194 -8.11927,0.636483 -5.044901,0.674558 -9.963253,2.038352 -14.702089,3.740186 -3.970004,1.417327 -7.797248,3.063011 -11.451917,4.810914 -3.654668,1.747904 -7.163451,3.601542 -10.605788,5.478706 -4.130804,2.252597 -8.174975,4.537881 -12.312345,6.700143 -2.329768,1.121513 -4.703895,2.215266 -7.150362,3.216901 -4.033585,1.896094 -8.289654,3.477609 -12.864257,4.438096 -1.112429,0.172681 -2.241846,0.335465 -3.383699,0.493456 -2.678714,0.42579 -5.414073,0.626887 -8.087226,0.528558 -0.668289,-0.02458 -1.332654,-0.06841 -1.989743,-0.131597 -2.956901,-0.284334 -5.762864,-0.956436 -8.0878,-2.092677 C 12.260229,39.567071 11.896042,39.344466 11.54488,39.109169 8.124916,36.473673 5.8483264,32.506948 5.3739062,28.314474 M 289.75421,22.872972 c -0.7632,5.033882 -3.93817,9.662005 -8.45359,12.396713 -0.45155,0.273471 -0.91649,0.528013 -1.39375,0.76213 -4.29532,2.107057 -9.50587,2.515343 -14.26446,1.201455 -1.05747,-0.291975 -2.09259,-0.668983 -3.0903,-1.131404 -2.4909,-1.150525 -4.74158,-2.737966 -6.759,-4.531706 -0.75654,-0.672652 -1.48022,-1.374319 -2.17143,-2.093304 -1.61284,-1.677632 -3.06146,-3.453076 -4.43665,-5.246073 -0.7956,-1.017555 -1.56488,-2.039265 -2.32812,-3.052541 -1.14485,-1.519913 -2.2813,-3.027796 -3.4767,-4.479847 -0.99617,-1.210043 -2.03405,-2.380633 -3.15523,-3.483336 -1.12117,-1.102703 -2.33223,-2.138975 -3.64143,-3.055022 -1.57104,-1.099255 -3.28444,-2.0243466 -5.15056,-2.6871583 -1.93633,-0.7421269 -3.98831,-1.1597574 -6.08768,-1.3068964 -3.60895,-0.3076567 -7.34499,0.2323758 -10.83232,1.3432499 -1.49457,0.4760889 -2.95078,1.0496614 -4.37451,1.6974523 -3.79661,1.7274425 -7.36227,3.9824105 -10.80406,6.3247355 -0.86045,0.585582 -1.71594,1.178015 -2.57,1.771364 -3.84537,2.669722 -7.66014,5.357398 -11.77118,7.537484 -0.45678,0.242231 -0.91805,0.478166 -1.38349,0.706852 -4.65442,2.286865 -9.72685,3.849192 -14.9173,3.73259 -3.94063,-0.200052 -7.79375,-1.340528 -11.49426,-2.876758 -0.3842,-0.168838 -0.76768,-0.340727 -1.15022,-0.515176 -3.44282,-1.570043 -6.8337,-3.345964 -10.23559,-5.024988 -0.75598,-0.373116 -1.51248,-0.741659 -2.27072,-1.102701 -4.57657,-2.258103 -9.23923,-4.330065 -14.03436,-5.973 -1.92899,-0.586756 -3.87092,-1.096126 -5.83252,-1.524021 -4.57706,-0.998423 -9.27476,-1.54628 -14.01624,-1.577229 -2.61579,-0.05558 -5.24564,0.0671 -7.86556,0.394487 -4.980233,0.605852 -9.814161,1.99882 -14.452165,3.840373 -3.87549,1.534193 -7.605873,3.376708 -11.162851,5.370184 -3.556978,1.993476 -6.969146,4.141681 -10.325266,6.33432 -4.027343,2.631168 -7.978502,5.325727 -12.028135,7.886266 -2.240671,1.364173 -4.528256,2.69762 -6.887395,3.922327 -4.004629,2.214852 -8.228863,4.080449 -12.777806,5.197908 -1.040851,0.222887 -2.096861,0.41997 -3.16332,0.591166 -2.66078,0.458763 -5.379985,0.638138 -8.052115,0.450795 C 22.275894,44.626827 21.610842,44.5565 20.952021,44.462452 17.987325,44.039236 15.150604,43.137767 12.750354,41.703875 12.357104,41.456034 11.976013,41.19304 11.607841,40.916053 7.9719479,38.004911 5.548362,33.663332 5.0422895,29.079543 M 289.75421,22.872972 c -0.82111,5.587316 -4.15265,10.743483 -8.86004,13.849209 -0.47074,0.310572 -0.95523,0.60064 -1.45235,0.868585 -4.47409,2.4115 -9.88292,2.983667 -14.78571,1.674577 -1.08951,-0.290909 -2.15403,-0.674719 -3.17775,-1.151891 -2.49492,-1.162921 -4.71926,-2.827973 -6.6972,-4.752777 -0.74172,-0.721802 -1.4488,-1.480131 -2.1225,-2.262206 -1.57197,-1.824841 -2.97558,-3.782729 -4.31847,-5.784181 -0.76736,-1.143687 -1.5149,-2.301599 -2.2627,-3.45704 -1.1217,-1.733162 -2.24954,-3.468174 -3.4502,-5.147294 -1.00055,-1.399267 -2.05167,-2.75972 -3.19195,-4.047941 -1.14029,-1.288222 -2.37678,-2.505766 -3.71252,-3.5921648 -1.60289,-1.3036785 -3.3487,-2.4185074 -5.24269,-3.2399978 -2.00106,-0.8679296 -4.11894,-1.383697 -6.27911,-1.601797 -3.7803,-0.3816749 -7.6901,0.1482568 -11.32998,1.2977373 -1.55995,0.4926345 -3.07813,1.0912078 -4.56092,1.7711592 -3.95411,1.8132039 -7.65654,4.2050971 -11.22809,6.7099371 -0.89289,0.62621 -1.78056,1.260964 -2.6669,1.897988 -3.98852,2.866612 -7.95001,5.779211 -12.23807,8.166187 -0.47645,0.26522 -0.95781,0.523918 -1.44377,0.775064 -4.85956,2.511466 -10.17811,4.267814 -15.63099,4.239746 -4.03615,-0.02077 -8.01111,-1.01792 -11.78466,-2.46977 -0.37735,-0.145185 -0.75269,-0.294917 -1.12588,-0.448674 -3.35868,-1.383817 -6.56925,-3.092028 -9.77672,-4.801651 -0.71277,-0.379916 -1.42538,-0.759903 -2.13944,-1.136414 -4.50277,-2.374244 -9.09083,-4.622363 -13.83356,-6.458294 -1.77852,-0.688474 -3.5788,-1.318984 -5.40448,-1.876444 -4.25991,-1.300742 -8.67264,-2.1963218 -13.11165,-2.4797198 -2.53658,-0.1619418 -5.08173,-0.1239873 -7.61186,0.1524912 -4.915555,0.5371446 -9.665059,1.9592866 -14.202231,3.9405596 -3.780976,1.65106 -7.414499,3.690404 -10.873786,5.929453 -3.459287,2.239049 -6.77484,4.68182 -10.044742,7.189936 -3.923883,3.009738 -7.782029,6.113573 -11.743926,9.072387 -2.151574,1.606834 -4.352617,3.179976 -6.624429,4.627754 -3.975671,2.53361 -8.168071,4.68329 -12.691354,5.957721 -0.969274,0.273092 -1.951875,0.504474 -2.942942,0.688875 -2.642845,0.491736 -5.345896,0.649388 -8.017003,0.373031 -0.667776,-0.06909 -1.333516,-0.165914 -1.994069,-0.290824 -2.972491,-0.562097 -5.83997,-1.692934 -8.315534,-3.424477 -0.410055,-0.286815 -0.80805,-0.590197 -1.193232,-0.908876 C 7.8189798,39.536149 5.2483976,34.819717 4.7106727,29.844612"
       inkscape:original-d="m 289.75421,22.872972 c -9.29917,-4.964504 -18.59803,-9.92944 -27.89657,-14.8947706 -9.29855,-4.96536 -25.45965,18.2593506 -29.85388,30.2932106 -4.39424,12.03383 1.35311,-3.09509 -16.59736,-15.06571 -19.81121,-13.2114366 -59.97771,-0.718839 -79.75844,6.54411 -19.78073,7.26293 -22.19716,-2.05053 -29.87221,6.362 -7.675037,8.41249 -44.409858,-46.131584 -57.155103,-26.083399 -55.0841396,86.646999 -24.493549,6.262729 -37.957223,3.784386 -13.4636583,-2.478313 -0.22924,3.511685 -0.646883,3.790707 m 279.737669,5.269466 c -9.42558,5.07974 -18.85087,10.1599 -28.27585,15.24048 -9.42498,5.08056 -26.90625,-20.301975 -30.99823,-32.2836016 -4.092,-11.981597 -31.69158,8.5329026 -65.37783,23.2560216 -20.35006,8.89431 -5.22573,-1.83595 -24.8267,-8.856509 C 120.67465,13.208784 107.77851,17.886744 100.31405,9.5673964 92.849594,1.2480574 73.433584,21.443682 53.449365,35.699732 c -19.984221,14.25607 -27.057189,5.28765 -40.585331,7.93208 -13.52812809,2.64446 -7.7427251,-13.51328 -8.1533613,-13.7872"
       inkscape:path-effect="#path-effect4250;#path-effect4686"
       sodipodi:nodetypes="csssssssccsssssssc" />
  </g>
</svg>
